<svg width="1920" height="1229" viewBox="0 0 1920 1229" fill="none" xmlns="http://www.w3.org/2000/svg">
<rect width="1920" height="1229" fill="#1A1A1A"/>
<mask id="mask0_10_39" style="mask-type:alpha" maskUnits="userSpaceOnUse" x="0" y="0" width="1920" height="1229">
<rect width="1920" height="1229" fill="#1A1A1A"/>
</mask>
<g mask="url(#mask0_10_39)">
<g style="mix-blend-mode:plus-lighter" filter="url(#filter0_f_10_39)">
<ellipse cx="125.967" cy="178.901" rx="125.967" ry="178.901" transform="matrix(0.82422 0.566269 -0.566895 0.82379 1549.84 -179.854)" fill="#FFB800"/>
</g>
<path d="M483.254 928.605C471.921 928.605 461.454 926.871 451.854 923.405C442.387 919.805 434.121 914.738 427.054 908.205C420.121 901.671 414.721 893.938 410.854 885.005C406.987 876.071 405.054 866.205 405.054 855.405C405.054 844.605 406.987 834.738 410.854 825.805C414.721 816.871 420.187 809.138 427.254 802.605C434.321 796.071 442.654 791.071 452.254 787.605C461.987 784.005 472.654 782.205 484.254 782.205C498.121 782.205 510.454 784.538 521.254 789.205C532.187 793.871 541.187 800.538 548.254 809.205L518.054 835.805C513.654 830.738 508.854 826.938 503.654 824.405C498.587 821.738 492.921 820.405 486.654 820.405C481.454 820.405 476.721 821.205 472.454 822.805C468.321 824.405 464.787 826.738 461.854 829.805C458.921 832.871 456.654 836.538 455.054 840.805C453.454 845.071 452.654 849.938 452.654 855.405C452.654 860.605 453.454 865.405 455.054 869.805C456.654 874.071 458.921 877.738 461.854 880.805C464.787 883.871 468.254 886.271 472.254 888.005C476.387 889.605 480.987 890.405 486.054 890.405C491.387 890.405 496.587 889.538 501.654 887.805C506.721 885.938 512.121 882.805 517.854 878.405L544.254 910.805C535.721 916.538 525.987 920.938 515.054 924.005C504.121 927.071 493.521 928.605 483.254 928.605ZM503.254 904.805L503.254 851.605H544.254L544.254 910.805L503.254 904.805ZM637.765 928.605C626.432 928.605 615.898 926.805 606.165 923.205C596.565 919.605 588.232 914.538 581.165 908.005C574.098 901.338 568.565 893.538 564.565 884.605C560.698 875.671 558.765 865.938 558.765 855.405C558.765 844.738 560.698 835.005 564.565 826.205C568.565 817.271 574.098 809.538 581.165 803.005C588.232 796.338 596.565 791.205 606.165 787.605C615.898 784.005 626.432 782.205 637.765 782.205C649.232 782.205 659.765 784.005 669.365 787.605C678.965 791.205 687.298 796.338 694.365 803.005C701.432 809.538 706.898 817.271 710.765 826.205C714.765 835.005 716.765 844.738 716.765 855.405C716.765 865.938 714.765 875.671 710.765 884.605C706.898 893.538 701.432 901.338 694.365 908.005C687.298 914.538 678.965 919.605 669.365 923.205C659.765 926.805 649.232 928.605 637.765 928.605ZM637.765 890.405C642.165 890.405 646.232 889.605 649.965 888.005C653.832 886.405 657.165 884.138 659.965 881.205C662.898 878.138 665.165 874.471 666.765 870.205C668.365 865.805 669.165 860.871 669.165 855.405C669.165 849.938 668.365 845.071 666.765 840.805C665.165 836.405 662.898 832.738 659.965 829.805C657.165 826.738 653.832 824.405 649.965 822.805C646.232 821.205 642.165 820.405 637.765 820.405C633.365 820.405 629.232 821.205 625.365 822.805C621.632 824.405 618.298 826.738 615.365 829.805C612.565 832.738 610.365 836.405 608.765 840.805C607.165 845.071 606.365 849.938 606.365 855.405C606.365 860.871 607.165 865.805 608.765 870.205C610.365 874.471 612.565 878.138 615.365 881.205C618.298 884.138 621.632 886.405 625.365 888.005C629.232 889.605 633.365 890.405 637.765 890.405ZM735.896 871.805L726.896 785.405L780.896 785.405L771.896 871.805L735.896 871.805ZM753.896 927.405C746.163 927.405 739.829 925.071 734.896 920.405C729.963 915.605 727.496 909.938 727.496 903.405C727.496 896.738 729.963 891.138 734.896 886.605C739.829 882.071 746.163 879.805 753.896 879.805C761.763 879.805 768.096 882.071 772.896 886.605C777.829 891.138 780.296 896.738 780.296 903.405C780.296 909.938 777.829 915.605 772.896 920.405C768.096 925.071 761.763 927.405 753.896 927.405ZM796.787 925.405L796.787 785.405L865.787 785.405C881.387 785.405 895.12 788.271 906.987 794.005C918.853 799.605 928.12 807.605 934.787 818.005C941.453 828.405 944.787 840.805 944.787 855.205C944.787 869.738 941.453 882.271 934.787 892.805C928.12 903.205 918.853 911.271 906.987 917.005C895.12 922.605 881.387 925.405 865.787 925.405L796.787 925.405ZM843.987 888.605H863.787C870.453 888.605 876.253 887.338 881.187 884.805C886.253 882.271 890.187 878.538 892.987 873.605C895.787 868.538 897.187 862.405 897.187 855.205C897.187 848.138 895.787 842.138 892.987 837.205C890.187 832.271 886.253 828.538 881.187 826.005C876.253 823.471 870.453 822.205 863.787 822.205H843.987V888.605ZM962.021 925.405L962.021 785.405L1029.42 785.405C1042.49 785.405 1053.75 787.538 1063.22 791.805C1072.82 796.071 1080.22 802.205 1085.42 810.205C1090.62 818.071 1093.22 827.405 1093.22 838.205C1093.22 849.005 1090.62 858.338 1085.42 866.205C1080.22 873.938 1072.82 879.871 1063.22 884.005C1053.75 888.138 1042.49 890.205 1029.42 890.205L988.221 890.205L1009.22 870.805L1009.22 925.405L962.021 925.405ZM1045.82 925.405L1011.42 874.405L1061.42 874.405L1096.22 925.405H1045.82ZM1009.22 876.005L988.221 854.605L1026.42 854.605C1032.95 854.605 1037.75 853.138 1040.82 850.205C1044.02 847.271 1045.62 843.271 1045.62 838.205C1045.62 833.138 1044.02 829.138 1040.82 826.205C1037.75 823.271 1032.95 821.805 1026.42 821.805L988.221 821.805L1009.22 800.405L1009.22 876.005ZM1178.04 928.605C1156.58 928.605 1139.84 922.805 1127.84 911.205C1115.84 899.605 1109.84 883.338 1109.84 862.405L1109.84 785.405H1157.04L1157.04 861.005C1157.04 871.671 1158.98 879.271 1162.84 883.805C1166.71 888.205 1171.91 890.405 1178.44 890.405C1185.11 890.405 1190.31 888.205 1194.04 883.805C1197.91 879.271 1199.84 871.671 1199.84 861.005L1199.84 785.405L1246.24 785.405L1246.24 862.405C1246.24 883.338 1240.24 899.605 1228.24 911.205C1216.24 922.805 1199.51 928.605 1178.04 928.605ZM1267.88 925.405L1267.88 785.405L1306.68 785.405L1362.68 876.805H1342.28L1396.68 785.405L1435.48 785.405L1435.88 925.405L1392.88 925.405L1392.48 850.205H1399.28L1362.08 912.805H1341.28L1302.48 850.205H1310.88L1310.88 925.405L1267.88 925.405ZM1510.9 928.605C1499.17 928.605 1487.83 927.271 1476.9 924.605C1465.97 921.938 1456.97 918.471 1449.9 914.205L1465.1 879.805C1471.77 883.671 1479.17 886.805 1487.3 889.205C1495.57 891.471 1503.57 892.605 1511.3 892.605C1515.83 892.605 1519.37 892.338 1521.9 891.805C1524.57 891.138 1526.5 890.271 1527.7 889.205C1528.9 888.005 1529.5 886.605 1529.5 885.005C1529.5 882.471 1528.1 880.471 1525.3 879.005C1522.5 877.538 1518.77 876.338 1514.1 875.405C1509.57 874.338 1504.57 873.271 1499.1 872.205C1493.63 871.005 1488.1 869.471 1482.5 867.605C1477.03 865.738 1471.97 863.271 1467.3 860.205C1462.77 857.138 1459.1 853.138 1456.3 848.205C1453.5 843.138 1452.1 836.871 1452.1 829.405C1452.1 820.738 1454.5 812.871 1459.3 805.805C1464.23 798.605 1471.5 792.871 1481.1 788.605C1490.83 784.338 1502.9 782.205 1517.3 782.205C1526.77 782.205 1536.1 783.205 1545.3 785.205C1554.5 787.205 1562.77 790.271 1570.1 794.405L1555.9 828.605C1548.97 825.138 1542.23 822.538 1535.7 820.805C1529.3 819.071 1523.03 818.205 1516.9 818.205C1512.37 818.205 1508.77 818.605 1506.1 819.405C1503.43 820.205 1501.5 821.271 1500.3 822.605C1499.23 823.938 1498.7 825.405 1498.7 827.005C1498.7 829.405 1500.1 831.338 1502.9 832.805C1505.7 834.138 1509.37 835.271 1513.9 836.205C1518.57 837.138 1523.63 838.138 1529.1 839.205C1534.7 840.271 1540.23 841.738 1545.7 843.605C1551.17 845.471 1556.17 847.938 1560.7 851.005C1565.37 854.071 1569.1 858.071 1571.9 863.005C1574.7 867.938 1576.1 874.071 1576.1 881.405C1576.1 889.938 1573.63 897.805 1568.7 905.005C1563.9 912.071 1556.7 917.805 1547.1 922.205C1537.5 926.471 1525.43 928.605 1510.9 928.605Z" fill="black" fill-opacity="0.3"/>
<g style="mix-blend-mode:plus-lighter" filter="url(#filter1_f_10_39)">
<ellipse cx="288.087" cy="513.17" rx="288.087" ry="513.17" transform="matrix(0.693625 -0.720336 0.7209 0.69304 220 538.938)" fill="url(#paint0_linear_10_39)" fill-opacity="0.6"/>
</g>
</g>
<defs>
<filter id="filter0_f_10_39" x="907.104" y="-624.915" width="1290.28" height="1327.54" filterUnits="userSpaceOnUse" color-interpolation-filters="sRGB">
<feFlood flood-opacity="0" result="BackgroundImageFix"/>
<feBlend mode="normal" in="SourceGraphic" in2="BackgroundImageFix" result="shape"/>
<feGaussianBlur stdDeviation="250" result="effect1_foregroundBlur_10_39"/>
</filter>
<filter id="filter1_f_10_39" x="-30.7748" y="-124.765" width="1641.09" height="1623.66" filterUnits="userSpaceOnUse" color-interpolation-filters="sRGB">
<feFlood flood-opacity="0" result="BackgroundImageFix"/>
<feBlend mode="normal" in="SourceGraphic" in2="BackgroundImageFix" result="shape"/>
<feGaussianBlur stdDeviation="200" result="effect1_foregroundBlur_10_39"/>
</filter>
<linearGradient id="paint0_linear_10_39" x1="159.406" y1="219.488" x2="483.595" y2="958.519" gradientUnits="userSpaceOnUse">
<stop stop-color="#FF0F00"/>
<stop offset="1" stop-color="#FF5C00"/>
</linearGradient>
</defs>
</svg>
