<svg width="1920" height="757" viewBox="0 0 1920 757" fill="none" xmlns="http://www.w3.org/2000/svg">
<rect width="1920" height="757" fill="#F5F5F5"/>
<mask id="mask0_10_69" style="mask-type:alpha" maskUnits="userSpaceOnUse" x="0" y="0" width="1920" height="757">
<rect width="1920" height="757" fill="#F5F5F5"/>
</mask>
<g mask="url(#mask0_10_69)">
<mask id="path-3-outside-1_10_69" maskUnits="userSpaceOnUse" x="126" y="139" width="1561" height="734" fill="black">
<rect fill="white" x="126" y="139" width="1561" height="734"/>
<path d="M518.395 872C461.728 872 409.395 863.333 361.395 846C314.061 828 272.728 802.667 237.395 770C202.728 737.333 175.728 698.667 156.395 654C137.061 609.333 127.395 560 127.395 506C127.395 452 137.061 402.667 156.395 358C175.728 313.333 203.061 274.667 238.395 242C273.728 209.333 315.395 184.333 363.395 167C412.061 149 465.395 140 523.395 140C592.728 140 654.395 151.667 708.395 175C763.061 198.333 808.061 231.667 843.395 275L692.395 408C670.395 382.667 646.395 363.667 620.395 351C595.061 337.667 566.728 331 535.395 331C509.395 331 485.728 335 464.395 343C443.728 351 426.061 362.667 411.395 378C396.728 393.333 385.395 411.667 377.395 433C369.395 454.333 365.395 478.667 365.395 506C365.395 532 369.395 556 377.395 578C385.395 599.333 396.728 617.667 411.395 633C426.061 648.333 443.395 660.333 463.395 669C484.061 677 507.061 681 532.395 681C559.061 681 585.061 676.667 610.395 668C635.728 658.667 662.728 643 691.395 621L823.395 783C780.728 811.667 732.061 833.667 677.395 849C622.728 864.333 569.728 872 518.395 872ZM618.395 753V487H823.395V783L618.395 753ZM1290.95 872C1234.28 872 1181.62 863 1132.95 845C1084.95 827 1043.28 801.667 1007.95 769C972.616 735.667 944.949 696.667 924.949 652C905.616 607.333 895.949 558.667 895.949 506C895.949 452.667 905.616 404 924.949 360C944.949 315.333 972.616 276.667 1007.95 244C1043.28 210.667 1084.95 185 1132.95 167C1181.62 149 1234.28 140 1290.95 140C1348.28 140 1400.95 149 1448.95 167C1496.95 185 1538.62 210.667 1573.95 244C1609.28 276.667 1636.62 315.333 1655.95 360C1675.95 404 1685.95 452.667 1685.95 506C1685.95 558.667 1675.95 607.333 1655.95 652C1636.62 696.667 1609.28 735.667 1573.95 769C1538.62 801.667 1496.95 827 1448.95 845C1400.95 863 1348.28 872 1290.95 872ZM1290.95 681C1312.95 681 1333.28 677 1351.95 669C1371.28 661 1387.95 649.667 1401.95 635C1416.62 619.667 1427.95 601.333 1435.95 580C1443.95 558 1447.95 533.333 1447.95 506C1447.95 478.667 1443.95 454.333 1435.95 433C1427.95 411 1416.62 392.667 1401.95 378C1387.95 362.667 1371.28 351 1351.95 343C1333.28 335 1312.95 331 1290.95 331C1268.95 331 1248.28 335 1228.95 343C1210.28 351 1193.62 362.667 1178.95 378C1164.95 392.667 1153.95 411 1145.95 433C1137.95 454.333 1133.95 478.667 1133.95 506C1133.95 533.333 1137.95 558 1145.95 580C1153.95 601.333 1164.95 619.667 1178.95 635C1193.62 649.667 1210.28 661 1228.95 669C1248.28 677 1268.95 681 1290.95 681Z"/>
</mask>
<path d="M361.395 846L361.039 846.935L361.047 846.938L361.055 846.941L361.395 846ZM237.395 770L236.709 770.728L236.716 770.734L237.395 770ZM156.395 654L155.477 654.397L155.477 654.397L156.395 654ZM156.395 358L155.477 357.603L155.477 357.603L156.395 358ZM238.395 242L237.716 241.266L237.716 241.266L238.395 242ZM363.395 167L363.734 167.941L363.741 167.938L363.395 167ZM708.395 175L707.998 175.918L708.002 175.92L708.395 175ZM843.395 275L844.056 275.75L844.778 275.114L844.17 274.368L843.395 275ZM692.395 408L691.64 408.656L692.3 409.416L693.056 408.75L692.395 408ZM620.395 351L619.929 351.885L619.943 351.892L619.957 351.899L620.395 351ZM464.395 343L464.043 342.064L464.034 342.067L464.395 343ZM411.395 378L412.117 378.691L412.117 378.691L411.395 378ZM377.395 433L378.331 433.351L378.331 433.351L377.395 433ZM377.395 578L376.455 578.342L376.458 578.351L377.395 578ZM411.395 633L412.117 632.309L412.117 632.309L411.395 633ZM463.395 669L462.997 669.918L463.015 669.925L463.034 669.933L463.395 669ZM610.395 668L610.718 668.946L610.729 668.942L610.74 668.938L610.395 668ZM691.395 621L692.17 620.368L691.556 619.615L690.786 620.207L691.395 621ZM823.395 783L823.952 783.83L824.863 783.218L824.17 782.368L823.395 783ZM677.395 849L677.665 849.963L677.665 849.963L677.395 849ZM618.395 753H617.395V753.864L618.25 753.989L618.395 753ZM618.395 487V486H617.395V487H618.395ZM823.395 487H824.395V486H823.395V487ZM823.395 783L823.25 783.989L824.395 784.157V783H823.395ZM518.395 871C461.831 871 409.614 862.349 361.734 845.059L361.055 846.941C409.175 864.317 461.625 873 518.395 873V871ZM361.75 845.065C314.53 827.108 273.308 801.841 238.073 769.266L236.716 770.734C272.148 803.492 313.592 828.892 361.039 846.935L361.75 845.065ZM238.08 769.272C203.515 736.701 176.593 698.147 157.312 653.603L155.477 654.397C174.863 699.186 201.941 737.966 236.709 770.728L238.08 769.272ZM157.312 653.603C138.039 609.075 128.395 559.878 128.395 506H126.395C126.395 560.122 136.084 609.592 155.477 654.397L157.312 653.603ZM128.395 506C128.395 452.122 138.039 402.925 157.312 358.397L155.477 357.603C136.084 402.408 126.395 451.878 126.395 506H128.395ZM157.312 358.397C176.591 313.857 203.843 275.305 239.073 242.734L237.716 241.266C202.279 274.028 174.865 312.81 155.477 357.603L157.312 358.397ZM239.073 242.734C274.303 210.164 315.852 185.231 363.734 167.941L363.055 166.059C314.937 183.435 273.153 208.503 237.716 241.266L239.073 242.734ZM363.741 167.938C412.285 149.984 465.499 141 523.395 141V139C465.29 139 411.838 148.016 363.048 166.062L363.741 167.938ZM523.395 141C592.615 141 654.143 152.647 707.998 175.918L708.791 174.082C654.646 150.686 592.84 139 523.395 139V141ZM708.002 175.92C762.529 199.194 807.395 232.432 842.62 275.632L844.17 274.368C808.728 230.901 763.593 197.473 708.787 174.08L708.002 175.92ZM842.734 274.25L691.734 407.25L693.056 408.75L844.056 275.75L842.734 274.25ZM693.15 407.344C671.075 381.925 646.971 362.835 620.833 350.101L619.957 351.899C645.818 364.498 669.714 383.408 691.64 408.656L693.15 407.344ZM620.86 350.115C595.37 336.699 566.875 330 535.395 330V332C566.581 332 594.752 338.634 619.929 351.885L620.86 350.115ZM535.395 330C509.291 330 485.504 334.016 464.043 342.064L464.746 343.936C485.952 335.984 509.498 332 535.395 332V330ZM464.034 342.067C443.236 350.118 425.444 361.865 410.672 377.309L412.117 378.691C426.678 363.469 444.219 351.882 464.756 343.933L464.034 342.067ZM410.672 377.309C395.905 392.747 384.502 411.198 376.458 432.649L378.331 433.351C386.287 412.135 397.551 393.92 412.117 378.691L410.672 377.309ZM376.458 432.649C368.409 454.114 364.395 478.57 364.395 506H366.395C366.395 478.763 370.38 454.552 378.331 433.351L376.458 432.649ZM364.395 506C364.395 532.104 368.411 556.221 376.455 578.342L378.334 577.658C370.378 555.779 366.395 531.896 366.395 506H364.395ZM376.458 578.351C384.502 599.802 395.905 618.253 410.672 633.691L412.117 632.309C397.551 617.08 386.287 598.865 378.331 577.649L376.458 578.351ZM410.672 633.691C425.433 649.124 442.878 661.199 462.997 669.918L463.792 668.082C443.911 659.467 426.689 647.543 412.117 632.309L410.672 633.691ZM463.034 669.933C483.831 677.983 506.955 682 532.395 682V680C507.167 680 484.292 676.017 463.756 668.067L463.034 669.933ZM532.395 682C559.172 682 585.281 677.648 610.718 668.946L610.071 667.054C584.841 675.685 558.951 680 532.395 680V682ZM610.74 668.938C636.194 659.561 663.282 643.835 692.003 621.793L690.786 620.207C662.174 642.165 635.262 657.773 610.049 667.062L610.74 668.938ZM690.619 621.632L822.619 783.632L824.17 782.368L692.17 620.368L690.619 621.632ZM822.837 782.17C780.267 810.771 731.699 832.73 677.125 848.037L677.665 849.963C732.423 834.604 781.189 812.562 823.952 783.83L822.837 782.17ZM677.125 848.037C622.537 863.348 569.627 871 518.395 871V873C569.828 873 622.919 865.318 677.665 849.963L677.125 848.037ZM619.395 753V487H617.395V753H619.395ZM618.395 488H823.395V486H618.395V488ZM822.395 487V783H824.395V487H822.395ZM823.539 782.011L618.539 752.011L618.25 753.989L823.25 783.989L823.539 782.011ZM1132.95 845L1132.6 845.936L1132.6 845.938L1132.95 845ZM1007.95 769L1007.26 769.727L1007.27 769.734L1007.95 769ZM924.949 652L924.031 652.397L924.037 652.409L924.949 652ZM924.949 360L924.037 359.591L924.034 359.598L924.949 360ZM1007.95 244L1008.63 244.734L1008.64 244.727L1007.95 244ZM1132.95 167L1132.6 166.062L1132.6 166.064L1132.95 167ZM1448.95 167L1448.6 167.936L1448.6 167.936L1448.95 167ZM1573.95 244L1573.26 244.727L1573.27 244.734L1573.95 244ZM1655.95 360L1655.03 360.397L1655.04 360.406L1655.04 360.414L1655.95 360ZM1655.95 652L1655.04 651.591L1655.03 651.603L1655.95 652ZM1573.95 769L1574.63 769.734L1574.64 769.727L1573.95 769ZM1448.95 845L1448.6 844.064L1448.6 844.064L1448.95 845ZM1351.95 669L1351.57 668.076L1351.56 668.081L1351.95 669ZM1401.95 635L1401.23 634.309L1401.23 634.31L1401.95 635ZM1435.95 580L1436.89 580.351L1436.89 580.342L1435.95 580ZM1435.95 433L1435.01 433.342L1435.01 433.351L1435.95 433ZM1401.95 378L1401.21 378.674L1401.23 378.691L1401.24 378.707L1401.95 378ZM1351.95 343L1351.56 343.919L1351.57 343.924L1351.95 343ZM1228.95 343L1228.57 342.076L1228.56 342.081L1228.95 343ZM1178.95 378L1178.23 377.309L1178.23 377.31L1178.95 378ZM1145.95 433L1146.89 433.351L1146.89 433.342L1145.95 433ZM1145.95 580L1145.01 580.342L1145.01 580.351L1145.95 580ZM1178.95 635L1178.21 635.674L1178.23 635.691L1178.24 635.707L1178.95 635ZM1228.95 669L1228.56 669.919L1228.57 669.924L1228.95 669ZM1290.95 871C1234.39 871 1181.84 862.017 1133.3 844.062L1132.6 845.938C1181.39 863.983 1234.18 873 1290.95 873V871ZM1133.3 844.064C1085.41 826.106 1043.86 800.839 1008.63 768.266L1007.27 769.734C1042.7 802.495 1084.48 827.894 1132.6 845.936L1133.3 844.064ZM1008.64 768.273C973.399 735.03 945.809 696.139 925.862 651.591L924.037 652.409C944.09 697.195 971.833 736.303 1007.26 769.727L1008.64 768.273ZM925.867 651.603C906.592 607.071 896.949 558.541 896.949 506H894.949C894.949 558.792 904.64 607.595 924.031 652.397L925.867 651.603ZM896.949 506C896.949 452.79 906.593 404.262 925.865 360.402L924.034 359.598C904.639 403.738 894.949 452.543 894.949 506H896.949ZM925.862 360.409C945.808 315.863 973.396 277.308 1008.63 244.734L1007.27 243.266C971.836 276.026 944.091 314.804 924.037 359.591L925.862 360.409ZM1008.64 244.727C1043.87 211.49 1085.42 185.892 1133.3 167.936L1132.6 166.064C1084.48 184.108 1042.7 209.843 1007.26 243.273L1008.64 244.727ZM1133.3 167.938C1181.84 149.983 1234.39 141 1290.95 141V139C1234.18 139 1181.39 148.017 1132.6 166.062L1133.3 167.938ZM1290.95 141C1348.18 141 1400.72 149.983 1448.6 167.936L1449.3 166.064C1401.18 148.017 1348.39 139 1290.95 139V141ZM1448.6 167.936C1496.48 185.892 1538.03 211.49 1573.26 244.727L1574.64 243.273C1539.2 209.843 1497.42 184.108 1449.3 166.064L1448.6 167.936ZM1573.27 244.734C1608.5 277.305 1635.75 315.857 1655.03 360.397L1656.87 359.603C1637.48 314.81 1610.06 276.028 1574.63 243.266L1573.27 244.734ZM1655.04 360.414C1674.97 404.271 1684.95 452.795 1684.95 506H1686.95C1686.95 452.539 1676.92 403.729 1656.86 359.586L1655.04 360.414ZM1684.95 506C1684.95 558.537 1674.97 607.063 1655.04 651.591L1656.86 652.409C1676.92 607.604 1686.95 558.797 1686.95 506H1684.95ZM1655.03 651.603C1635.75 696.145 1608.5 735.033 1573.26 768.273L1574.64 769.727C1610.07 736.301 1637.48 697.188 1656.87 652.397L1655.03 651.603ZM1573.27 768.266C1538.04 800.839 1496.48 826.106 1448.6 844.064L1449.3 845.936C1497.41 827.894 1539.19 802.495 1574.63 769.734L1573.27 768.266ZM1448.6 844.064C1400.72 862.017 1348.18 871 1290.95 871V873C1348.39 873 1401.18 863.983 1449.3 845.936L1448.6 844.064ZM1290.95 682C1313.07 682 1333.54 677.977 1352.34 669.919L1351.56 668.081C1333.02 676.023 1312.83 680 1290.95 680V682ZM1352.33 669.924C1371.79 661.872 1388.57 650.461 1402.67 635.69L1401.23 634.31C1387.33 648.872 1370.78 660.127 1351.57 668.076L1352.33 669.924ZM1402.67 635.691C1417.44 620.253 1428.84 601.802 1436.89 580.351L1435.01 579.649C1427.06 600.865 1415.79 619.08 1401.23 634.309L1402.67 635.691ZM1436.89 580.342C1444.93 558.216 1448.95 533.431 1448.95 506H1446.95C1446.95 533.236 1442.96 557.784 1435.01 579.658L1436.89 580.342ZM1448.95 506C1448.95 478.57 1444.94 454.114 1436.89 432.649L1435.01 433.351C1442.96 454.552 1446.95 478.763 1446.95 506H1448.95ZM1436.89 432.658C1428.85 410.539 1417.44 392.075 1402.66 377.293L1401.24 378.707C1415.79 393.258 1427.05 411.461 1435.01 433.342L1436.89 432.658ZM1402.69 377.326C1388.59 361.883 1371.8 350.132 1352.33 342.076L1351.57 343.924C1370.77 351.868 1387.31 363.45 1401.21 378.674L1402.69 377.326ZM1352.34 342.081C1333.54 334.023 1313.07 330 1290.95 330V332C1312.83 332 1333.02 335.977 1351.56 343.919L1352.34 342.081ZM1290.95 330C1268.82 330 1248.03 334.023 1228.57 342.076L1229.33 343.924C1248.54 335.977 1269.07 332 1290.95 332V330ZM1228.56 342.081C1209.76 350.136 1192.98 361.883 1178.23 377.309L1179.67 378.691C1194.25 363.451 1210.81 351.864 1229.34 343.919L1228.56 342.081ZM1178.23 377.31C1164.12 392.09 1153.05 410.548 1145.01 432.658L1146.89 433.342C1154.85 411.452 1165.78 393.243 1179.67 378.69L1178.23 377.31ZM1145.01 432.649C1136.96 454.114 1132.95 478.57 1132.95 506H1134.95C1134.95 478.763 1138.94 454.552 1146.89 433.351L1145.01 432.649ZM1132.95 506C1132.95 533.431 1136.96 558.216 1145.01 580.342L1146.89 579.658C1138.93 557.784 1134.95 533.236 1134.95 506H1132.95ZM1145.01 580.351C1153.05 601.792 1164.12 620.238 1178.21 635.674L1179.69 634.326C1165.78 619.095 1154.85 600.874 1146.89 579.649L1145.01 580.351ZM1178.24 635.707C1193 650.462 1209.77 661.868 1228.56 669.919L1229.34 668.081C1210.8 660.132 1194.24 648.872 1179.66 634.293L1178.24 635.707ZM1228.57 669.924C1248.03 677.977 1268.82 682 1290.95 682V680C1269.07 680 1248.54 676.023 1229.33 668.076L1228.57 669.924Z" fill="#DFDFDF" mask="url(#path-3-outside-1_10_69)"/>
<g filter="url(#filter0_f_10_69)">
<ellipse cx="782.943" cy="572.983" rx="176.673" ry="314.698" transform="rotate(-25.2255 782.943 572.983)" fill="#FF00E6" fill-opacity="0.15"/>
</g>
</g>
<defs>
<filter id="filter0_f_10_69" x="174.296" y="-121.566" width="1217.29" height="1389.1" filterUnits="userSpaceOnUse" color-interpolation-filters="sRGB">
<feFlood flood-opacity="0" result="BackgroundImageFix"/>
<feBlend mode="normal" in="SourceGraphic" in2="BackgroundImageFix" result="shape"/>
<feGaussianBlur stdDeviation="200" result="effect1_foregroundBlur_10_69"/>
</filter>
</defs>
</svg>
