<svg width="1920" height="1840" viewBox="0 0 1920 1840" fill="none" xmlns="http://www.w3.org/2000/svg">
<rect width="1920" height="1840" fill="#F5F5F5"/>
<mask id="mask0_10_42" style="mask-type:alpha" maskUnits="userSpaceOnUse" x="0" y="0" width="1920" height="1840">
<rect width="1920" height="1840" fill="#F5F5F5"/>
</mask>
<g mask="url(#mask0_10_42)">
<mask id="path-3-outside-1_10_42" maskUnits="userSpaceOnUse" x="-328" y="401" width="1561" height="734" fill="black">
<rect fill="white" x="-328" y="401" width="1561" height="734"/>
<path d="M164.395 749H369.395V1045C328.061 1073.67 280.061 1095.67 225.395 1111C170.728 1126.33 117.061 1134 64.3945 1134C-10.2721 1134 -77.2721 1118.67 -136.605 1088C-195.939 1056.67 -242.605 1013.33 -276.605 958C-309.939 902 -326.605 838.667 -326.605 768C-326.605 697.333 -309.939 634.333 -276.605 579C-242.605 523 -195.605 479.667 -135.605 449C-74.9388 417.667 -6.60545 402 69.3945 402C138.061 402 199.395 413.667 253.395 437C308.061 459.667 353.395 493 389.395 537L238.395 670C194.395 618.667 142.061 593 81.3945 593C29.3946 593 -11.9388 608.667 -42.6054 640C-73.2721 671.333 -88.6054 714 -88.6054 768C-88.6054 820.667 -73.6055 863 -43.6055 895C-12.9388 927 27.7279 943 78.3945 943C108.395 943 137.061 937.333 164.395 926V749ZM836.949 1134C761.616 1134 693.949 1118.33 633.949 1087C573.949 1055.67 526.949 1012.33 492.949 957C458.949 901 441.949 838 441.949 768C441.949 698 458.949 635.333 492.949 580C526.949 524 573.949 480.333 633.949 449C693.949 417.667 761.616 402 836.949 402C912.283 402 979.949 417.667 1039.95 449C1099.95 480.333 1146.95 524 1180.95 580C1214.95 635.333 1231.95 698 1231.95 768C1231.95 838 1214.95 901 1180.95 957C1146.95 1012.33 1099.95 1055.67 1039.95 1087C979.949 1118.33 912.283 1134 836.949 1134ZM836.949 943C866.283 943 892.616 936 915.949 922C939.949 907.333 958.949 887 972.949 861C986.949 834.333 993.949 803.333 993.949 768C993.949 732.667 986.949 702 972.949 676C958.949 649.333 939.949 629 915.949 615C892.616 600.333 866.283 593 836.949 593C807.616 593 780.949 600.333 756.949 615C733.616 629 714.949 649.333 700.949 676C686.949 702 679.949 732.667 679.949 768C679.949 803.333 686.949 834.333 700.949 861C714.949 887 733.616 907.333 756.949 922C780.949 936 807.616 943 836.949 943Z"/>
</mask>
<path d="M164.395 749V748H163.395V749H164.395ZM369.395 749H370.395V748H369.395V749ZM369.395 1045L369.964 1045.82L370.395 1045.52V1045H369.395ZM-136.605 1088L-137.072 1088.88L-137.065 1088.89L-136.605 1088ZM-276.605 958L-277.465 958.512L-277.457 958.523L-276.605 958ZM-276.605 579L-277.46 578.481L-277.462 578.484L-276.605 579ZM-135.605 449L-135.15 449.89L-135.147 449.888L-135.605 449ZM253.395 437L252.998 437.918L253.005 437.921L253.012 437.924L253.395 437ZM389.395 537L390.056 537.75L390.779 537.113L390.169 536.367L389.395 537ZM238.395 670L237.635 670.651L238.295 671.42L239.056 670.75L238.395 670ZM-42.6054 640L-41.8908 640.699L-42.6054 640ZM-43.6055 895L-44.3351 895.684L-44.3275 895.692L-43.6055 895ZM164.395 926L164.778 926.924L165.395 926.668V926H164.395ZM164.395 750H369.395V748H164.395V750ZM368.395 749V1045H370.395V749H368.395ZM368.825 1044.18C327.594 1072.77 279.698 1094.73 225.125 1110.04L225.665 1111.96C280.425 1096.6 328.529 1074.56 369.964 1045.82L368.825 1044.18ZM225.125 1110.04C170.539 1125.35 116.963 1133 64.3946 1133V1135C117.159 1135 170.917 1127.32 225.665 1111.96L225.125 1110.04ZM64.3946 1133C-10.1314 1133 -76.9709 1117.7 -136.146 1087.11L-137.065 1088.89C-77.5733 1119.64 -10.4128 1135 64.3946 1135V1133ZM-136.138 1087.12C-195.319 1055.86 -241.85 1012.65 -275.753 957.476L-277.457 958.523C-243.361 1014.01 -196.559 1057.47 -137.072 1088.88L-136.138 1087.12ZM-275.746 957.489C-308.98 901.656 -325.605 838.502 -325.605 768H-327.605C-327.605 838.831 -310.898 902.344 -277.465 958.511L-275.746 957.489ZM-325.605 768C-325.605 697.497 -308.98 634.679 -275.749 579.516L-277.462 578.484C-310.898 633.988 -327.605 697.169 -327.605 768H-325.605ZM-275.751 579.519C-241.85 523.682 -194.99 480.475 -135.15 449.89L-136.061 448.11C-196.221 478.858 -243.361 522.318 -277.46 578.481L-275.751 579.519ZM-135.147 449.888C-74.6372 418.636 -6.46408 403 69.3945 403V401C-6.7468 401 -75.2404 416.697 -136.064 448.111L-135.147 449.888ZM69.3945 403C137.947 403 199.142 414.647 252.998 437.918L253.791 436.082C199.647 412.686 138.175 401 69.3945 401V403ZM253.012 437.924C307.532 460.53 352.729 493.766 388.621 537.633L390.169 536.367C354.06 492.234 308.59 458.803 253.778 436.076L253.012 437.924ZM388.734 536.25L237.734 669.25L239.056 670.75L390.056 537.75L388.734 536.25ZM239.154 669.349C194.988 617.823 142.389 592 81.3945 592V594C141.734 594 193.801 619.511 237.635 670.651L239.154 669.349ZM81.3945 592C29.1795 592 -12.4307 607.74 -43.3201 639.301L-41.8908 640.699C-11.4469 609.594 29.6096 594 81.3945 594V592ZM-43.3201 639.301C-74.2101 670.862 -89.6054 713.803 -89.6054 768H-87.6054C-87.6054 714.197 -72.3341 671.805 -41.8908 640.699L-43.3201 639.301ZM-89.6054 768C-89.6054 820.867 -74.5425 863.463 -44.335 895.684L-42.8759 894.316C-72.6684 862.537 -87.6054 820.467 -87.6054 768H-89.6054ZM-44.3275 895.692C-13.4445 927.918 27.498 944 78.3945 944V942C27.9578 942 -12.433 926.082 -42.8835 894.308L-44.3275 895.692ZM78.3945 944C108.524 944 137.321 938.308 164.778 926.924L164.012 925.076C136.801 936.359 108.265 942 78.3945 942V944ZM165.395 926V749H163.395V926H165.395ZM633.949 1087L634.412 1086.11L633.949 1087ZM492.949 957L492.094 957.519L492.097 957.523L492.949 957ZM492.949 580L493.801 580.523L493.804 580.519L492.949 580ZM1039.95 449L1040.41 448.114L1039.95 449ZM1180.95 580L1180.09 580.519L1180.1 580.523L1180.95 580ZM1180.95 957L1181.8 957.523L1181.8 957.519L1180.95 957ZM1039.95 1087L1040.41 1087.89L1039.95 1087ZM915.949 922L916.464 922.857L916.471 922.853L915.949 922ZM972.949 861L973.83 861.474L973.835 861.465L972.949 861ZM972.949 676L972.064 676.465L972.069 676.474L972.949 676ZM915.949 615L915.417 615.847L915.431 615.855L915.445 615.864L915.949 615ZM756.949 615L757.464 615.858L757.471 615.853L756.949 615ZM700.949 676L701.83 676.474L701.835 676.465L700.949 676ZM700.949 861L700.064 861.465L700.069 861.474L700.949 861ZM756.949 922L756.417 922.847L756.431 922.855L756.445 922.864L756.949 922ZM836.949 1133C761.759 1133 694.254 1117.36 634.412 1086.11L633.486 1087.89C693.645 1119.3 761.473 1135 836.949 1135V1133ZM634.412 1086.11C574.565 1054.86 527.703 1011.65 493.801 956.476L492.097 957.523C526.196 1013.02 573.333 1056.47 633.486 1087.89L634.412 1086.11ZM493.804 956.481C459.906 900.648 442.949 837.83 442.949 768H440.949C440.949 838.17 457.993 901.352 492.094 957.519L493.804 956.481ZM442.949 768C442.949 698.17 459.906 635.687 493.801 580.523L492.097 579.476C457.993 634.98 440.949 697.83 440.949 768H442.949ZM493.804 580.519C527.706 524.68 574.568 481.138 634.412 449.886L633.486 448.114C573.33 479.528 526.192 523.32 492.094 579.481L493.804 580.519ZM634.412 449.886C694.254 418.636 761.759 403 836.949 403V401C761.473 401 693.645 416.698 633.486 448.114L634.412 449.886ZM836.949 403C912.14 403 979.645 418.636 1039.49 449.886L1040.41 448.114C980.254 416.698 912.425 401 836.949 401V403ZM1039.49 449.886C1099.33 481.138 1146.19 524.68 1180.09 580.519L1181.8 579.481C1147.71 523.32 1100.57 479.528 1040.41 448.114L1039.49 449.886ZM1180.1 580.523C1213.99 635.687 1230.95 698.17 1230.95 768H1232.95C1232.95 697.83 1215.91 634.98 1181.8 579.476L1180.1 580.523ZM1230.95 768C1230.95 837.83 1213.99 900.648 1180.09 956.481L1181.8 957.519C1215.91 901.352 1232.95 838.17 1232.95 768H1230.95ZM1180.1 956.476C1146.2 1011.65 1099.33 1054.86 1039.49 1086.11L1040.41 1087.89C1100.57 1056.47 1147.7 1013.02 1181.8 957.523L1180.1 956.476ZM1039.49 1086.11C979.645 1117.36 912.14 1133 836.949 1133V1135C912.425 1135 980.254 1119.3 1040.41 1087.89L1039.49 1086.11ZM836.949 944C866.449 944 892.963 936.958 916.464 922.857L915.435 921.143C892.269 935.042 866.116 942 836.949 942V944ZM916.471 922.853C940.63 908.09 959.75 887.622 973.83 861.474L972.069 860.526C958.148 886.378 939.269 906.577 915.428 921.147L916.471 922.853ZM973.835 861.465C987.922 834.632 994.949 803.467 994.949 768H992.949C992.949 803.199 985.977 834.035 972.064 860.535L973.835 861.465ZM994.949 768C994.949 732.534 987.922 701.698 973.83 675.526L972.069 676.474C985.976 702.302 992.949 732.8 992.949 768H994.949ZM973.835 675.535C959.755 648.717 940.629 628.239 916.453 614.136L915.445 615.864C939.27 629.761 958.143 649.95 972.064 676.465L973.835 675.535ZM916.481 614.153C892.978 599.38 866.458 592 836.949 592V594C866.107 594 892.254 601.287 915.417 615.847L916.481 614.153ZM836.949 592C807.44 592 780.592 599.38 756.428 614.147L757.471 615.853C781.307 601.287 807.792 594 836.949 594V592ZM756.435 614.142C732.928 628.247 714.14 648.724 700.064 675.535L701.835 676.465C715.759 649.943 734.304 629.753 757.464 615.857L756.435 614.142ZM700.069 675.526C685.976 701.698 678.949 732.534 678.949 768H680.949C680.949 732.8 687.922 702.302 701.83 676.474L700.069 675.526ZM678.949 768C678.949 803.467 685.977 834.632 700.064 861.465L701.835 860.535C687.922 834.035 680.949 803.199 680.949 768H678.949ZM700.069 861.474C714.145 887.615 732.927 908.081 756.417 922.847L757.481 921.153C734.305 906.585 715.754 886.385 701.83 860.526L700.069 861.474ZM756.445 922.864C780.607 936.958 807.449 944 836.949 944V942C807.783 942 781.292 935.042 757.453 921.136L756.445 922.864Z" fill="#DFDFDF" mask="url(#path-3-outside-1_10_42)"/>
<g filter="url(#filter0_f_10_42)">
<ellipse cx="582.943" cy="335.983" rx="176.673" ry="314.698" transform="rotate(-25.2255 582.943 335.983)" fill="#FF00E6" fill-opacity="0.15"/>
</g>
<g filter="url(#filter1_f_10_42)">
<ellipse cx="1063.94" cy="817.983" rx="176.673" ry="314.698" transform="rotate(-25.2255 1063.94 817.983)" fill="#FF6B00" fill-opacity="0.4"/>
</g>
</g>
<defs>
<filter id="filter0_f_10_42" x="-25.7042" y="-358.566" width="1217.29" height="1389.1" filterUnits="userSpaceOnUse" color-interpolation-filters="sRGB">
<feFlood flood-opacity="0" result="BackgroundImageFix"/>
<feBlend mode="normal" in="SourceGraphic" in2="BackgroundImageFix" result="shape"/>
<feGaussianBlur stdDeviation="200" result="effect1_foregroundBlur_10_42"/>
</filter>
<filter id="filter1_f_10_42" x="455.296" y="123.434" width="1217.29" height="1389.1" filterUnits="userSpaceOnUse" color-interpolation-filters="sRGB">
<feFlood flood-opacity="0" result="BackgroundImageFix"/>
<feBlend mode="normal" in="SourceGraphic" in2="BackgroundImageFix" result="shape"/>
<feGaussianBlur stdDeviation="200" result="effect1_foregroundBlur_10_42"/>
</filter>
</defs>
</svg>
