<svg width="58" height="58" viewBox="0 0 58 58" fill="none" xmlns="http://www.w3.org/2000/svg">
<path d="M10.84 8.22411C10.84 7.53788 10.84 6.90547 10.84 6.27306C10.8533 4.95441 11.7333 3.99907 12.9333 4.01252C14.1333 4.01252 15.0133 4.96787 15.0133 6.29997C15.0133 6.91892 15.0133 7.53788 15.0133 8.1972C17.1333 8.1972 19.2133 8.1972 21.3867 8.1972C21.3867 7.44369 21.3467 6.69018 21.4 5.93667C21.4933 4.55075 22.8533 3.67613 24.1467 4.12017C24.9333 4.38928 25.5067 5.12933 25.5333 5.97704C25.56 6.69018 25.5333 7.41678 25.5333 8.18375C27.6533 8.18375 29.7467 8.18375 31.9067 8.18375C31.9067 7.48406 31.8933 6.77091 31.9067 6.05777C31.9467 4.61802 33.36 3.64922 34.6933 4.12017C35.52 4.41619 36.0533 5.19661 36.08 6.1385C36.0933 6.77091 36.0933 7.41678 36.0933 8.04919C36.0933 8.0761 36.1067 8.11647 36.1333 8.18375C38.2 8.18375 40.2933 8.18375 42.4533 8.18375C42.4533 7.40332 42.4 6.64981 42.4667 5.90976C42.5733 4.55075 43.9067 3.68959 45.1733 4.10671C45.9867 4.37582 46.56 5.12933 46.5867 5.99049C46.6133 6.70363 46.5867 7.43024 46.5867 8.22411C47.2267 8.22411 47.8133 8.22411 48.4133 8.22411C50.4133 8.22411 51.8 9.51585 51.9733 11.5342C52 11.8302 52 12.1397 52 12.4357C52 24.8821 52 37.315 52 49.7614C52 50.636 51.9067 51.4703 51.48 52.2372C50.84 53.381 49.9067 53.9865 48.56 53.9865C35.5733 53.973 22.5867 53.9596 9.58667 53.9999C7.37333 54.0134 6.21333 52.2642 6.04 50.7033C6 50.3938 6 50.0709 6 49.748C6 37.3016 6 24.8686 6 12.4222C6 11.3593 6.16 10.3501 6.82667 9.47548C7.45333 8.65469 8.25333 8.18375 9.30667 8.21066C9.8 8.23757 10.2933 8.22411 10.84 8.22411ZM7.61333 18.9482C7.61333 19.1635 7.61333 19.3384 7.61333 19.4999C7.61333 28.0845 7.61333 36.6557 7.61333 45.2404C7.61333 45.5229 7.61333 45.8055 7.65333 46.1015C7.84 47.8911 8.90667 48.8734 10.6667 48.8734C20.68 48.8734 30.6933 48.8464 40.7067 48.9003C41.84 48.9003 42.3867 48.4428 42.7733 47.5278C42.88 47.2721 43 47.003 43.08 46.7339C43.6533 44.729 43.64 42.7242 42.96 40.7462C42.8267 40.3694 42.8133 40.0196 43.12 39.7236C43.4133 39.4545 43.7467 39.4679 44.0933 39.6159C45.24 40.1138 46.3333 39.9254 47.3733 39.293C48.5333 38.5798 49.4 37.5707 50.1333 36.427C50.2933 36.1848 50.3867 35.8349 50.3867 35.5389C50.4 30.1836 50.4 24.8283 50.4 19.473C50.4 19.298 50.3867 19.1231 50.3733 18.9347C36.1067 18.9482 21.8933 18.9482 7.61333 18.9482ZM42.4667 9.87915C40.2933 9.87915 38.2 9.87915 36.08 9.87915C36.08 10.5519 36.12 11.1843 36.0667 11.8167C36.0267 12.2473 35.92 12.7183 35.7067 13.095C35.2533 13.8889 34.2667 14.2118 33.4 13.9562C32.56 13.714 31.9333 12.9201 31.92 12.0186C31.8933 11.3054 31.92 10.5923 31.92 9.87915C29.76 9.87915 27.68 9.87915 25.5467 9.87915C25.5467 10.6327 25.5733 11.3593 25.5467 12.0724C25.4933 13.2699 24.4533 14.1446 23.28 14.0235C22.1867 13.9024 21.44 13.0816 21.4 11.9109C21.3733 11.2382 21.4 10.5519 21.4 9.86569C19.24 9.86569 17.1733 9.86569 15.04 9.86569C15.04 10.525 15.04 11.1574 15.04 11.7898C15.0267 13.095 14.12 14.0504 12.92 14.0369C11.72 14.01 10.8667 13.0816 10.8667 11.7898C10.8667 11.1574 10.8667 10.525 10.8667 9.83878C10.3467 9.83878 9.89333 9.86569 9.42667 9.83878C8.72 9.79841 8.21333 10.1348 7.96 10.7538C7.77333 11.2247 7.65333 11.7495 7.64 12.2608C7.6 13.7678 7.62667 15.2883 7.62667 16.7953C7.62667 16.9568 7.64 17.1182 7.65333 17.2932C21.92 17.2932 36.1467 17.2932 50.4133 17.2932C50.4133 17.0644 50.4133 16.876 50.4133 16.6742C50.4133 15.073 50.4267 13.4852 50.3867 11.884C50.36 11.0229 50.0667 10.1483 49.1733 9.93297C48.36 9.74459 47.48 9.8926 46.6 9.8926C46.6 10.1213 46.6 10.2963 46.6 10.4846C46.6 11.0229 46.6133 11.5611 46.5867 12.0993C46.5333 13.1623 45.6667 13.9965 44.6 14.0504C43.5467 14.1042 42.5733 13.3103 42.48 12.2608C42.4133 11.4669 42.4667 10.6999 42.4667 9.87915ZM7.65333 49.5058C7.57333 50.2862 7.62667 50.9455 7.97333 51.551C8.29333 52.0892 8.73333 52.3853 9.4 52.3853C22.48 52.3718 35.5467 52.3718 48.6267 52.3853C49.2933 52.3853 49.7867 52.1161 50.04 51.5376C50.24 51.0801 50.3867 50.5553 50.4 50.044C50.44 48.5504 50.4133 47.0569 50.4133 45.5633C50.4133 45.4556 50.3867 45.3345 50.36 45.1327C50.2267 45.3615 50.16 45.4826 50.08 45.6171C48.1067 48.7792 45.4133 50.5284 41.56 50.5015C31.2667 50.4207 20.9733 50.4746 10.6667 50.488C9.56 50.488 8.56 50.3266 7.65333 49.5058ZM44.84 41.4997C45.2667 43.9621 45.12 46.3033 44.0267 48.6312C45.9333 48.0526 47.2667 46.8819 48.32 45.348C49.64 43.4239 50.2667 41.271 50.3733 38.8086C48.8267 40.4636 47.1867 41.6612 44.84 41.4997ZM13.4267 9.00454C13.4267 8.11647 13.4267 7.2284 13.4267 6.34034C13.4267 5.96358 13.3467 5.62719 12.9067 5.64065C12.5067 5.6541 12.4267 5.97703 12.44 6.32688C12.44 8.11647 12.44 9.91951 12.44 11.7091C12.44 12.0859 12.5067 12.4222 12.9467 12.4088C13.36 12.3953 13.4267 12.0724 13.4267 11.7226C13.4267 10.8076 13.4267 9.90606 13.4267 9.00454ZM34.48 9.05836C34.48 8.12992 34.48 7.21495 34.48 6.28651C34.48 5.92321 34.3733 5.61373 33.9733 5.62719C33.56 5.62719 33.4933 5.95012 33.4933 6.29997C33.4933 8.11647 33.4933 9.91951 33.4933 11.736C33.4933 12.0993 33.5733 12.3953 33.9867 12.3953C34.4 12.3953 34.48 12.0724 34.48 11.7226C34.48 10.8345 34.48 9.94642 34.48 9.05836ZM45 9.03145C45 8.12992 45 7.2284 45 6.31342C45 5.96358 44.9467 5.64065 44.5333 5.62719C44.12 5.61373 44.04 5.93667 44.04 6.28651C44.04 8.08956 44.04 9.90606 44.04 11.7091C44.04 12.0589 44.0933 12.3819 44.52 12.3953C44.9733 12.3953 45.0133 12.0455 45.0133 11.6822C44.9867 10.8076 45 9.91951 45 9.03145ZM23.9333 8.99108C23.9333 8.08956 23.9333 7.18804 23.9333 6.27306C23.9333 5.93667 23.8533 5.64065 23.4667 5.62719C23.0533 5.61373 22.96 5.92321 22.96 6.27306C22.96 8.10301 22.96 9.91951 22.96 11.7495C22.96 12.0859 23.04 12.3819 23.4267 12.3953C23.84 12.4088 23.9333 12.0993 23.9333 11.7495C23.9333 10.8345 23.9333 9.90606 23.9333 8.99108Z" fill="#D45006"/>
<path d="M20.1333 28.5153C19.88 28.5153 19.6667 28.4346 19.4933 28.2731C19.32 28.1116 19.24 27.8963 19.24 27.6407C19.24 27.1966 19.4267 26.9141 19.8133 26.793L23.3067 25.582C23.5333 25.5012 23.68 25.4609 23.76 25.4609C24 25.4609 24.2 25.5416 24.3733 25.7165C24.5333 25.8915 24.6267 26.0933 24.6267 26.3624V42.5091C24.6267 42.7513 24.5467 42.9666 24.3733 43.1415C24.2 43.3164 24 43.4106 23.7333 43.4106C23.4933 43.4106 23.28 43.3164 23.1067 43.1415C22.9333 42.9666 22.84 42.7513 22.84 42.5091V27.5869L20.5733 28.3942C20.44 28.4749 20.28 28.5153 20.1333 28.5153Z" fill="#D45006"/>
<path d="M28.2134 26.9811C28.0401 26.8062 27.9468 26.5909 27.9468 26.3487C27.9468 26.1065 28.0401 25.8912 28.2134 25.7163C28.3868 25.5414 28.6001 25.4472 28.8668 25.4472H38.1201C38.3601 25.4472 38.5601 25.5414 38.7334 25.7163C38.8934 25.8912 38.9868 26.1065 38.9868 26.3487C38.9868 26.4564 38.9468 26.6178 38.8534 26.8331L31.4001 42.8856C31.3201 43.0336 31.2134 43.1547 31.0668 43.2489C30.9201 43.3431 30.7734 43.3835 30.6001 43.3835C30.3601 43.3835 30.1468 43.2893 29.9734 43.1144C29.8001 42.9394 29.7068 42.7241 29.7068 42.4819C29.7068 42.3474 29.7734 42.159 29.8934 41.9034L36.6668 27.2233H28.8534C28.6001 27.2503 28.3868 27.1561 28.2134 26.9811Z" fill="#D45006"/>
</svg>
