<svg width="1920" height="1520" viewBox="0 0 1920 1520" fill="none" xmlns="http://www.w3.org/2000/svg">
<rect width="1920" height="1520" fill="#F5F5F5"/>
<mask id="mask0_10_31" style="mask-type:alpha" maskUnits="userSpaceOnUse" x="0" y="0" width="1920" height="1520">
<rect width="1920" height="1520" fill="#F5F5F5"/>
</mask>
<g mask="url(#mask0_10_31)">
<mask id="path-3-outside-1_10_31" maskUnits="userSpaceOnUse" x="1484" y="169" width="734" height="1561" fill="black">
<rect fill="white" x="1484" y="169" width="734" height="1561"/>
<path d="M2217 1337.61C2217 1394.27 2208.33 1446.61 2191 1494.61C2173 1541.94 2147.67 1583.27 2115 1618.61C2082.33 1653.27 2043.67 1680.27 1999 1699.61C1954.33 1718.94 1905 1728.61 1851 1728.61C1797 1728.61 1747.67 1718.94 1703 1699.61C1658.33 1680.27 1619.67 1652.94 1587 1617.61C1554.33 1582.27 1529.33 1540.61 1512 1492.61C1494 1443.94 1485 1390.61 1485 1332.61C1485 1263.27 1496.67 1201.61 1520 1147.61C1543.33 1092.94 1576.67 1047.94 1620 1012.61L1753 1163.61C1727.67 1185.61 1708.67 1209.61 1696 1235.61C1682.67 1260.94 1676 1289.27 1676 1320.61C1676 1346.61 1680 1370.27 1688 1391.61C1696 1412.27 1707.67 1429.94 1723 1444.61C1738.33 1459.27 1756.67 1470.61 1778 1478.61C1799.33 1486.61 1823.67 1490.61 1851 1490.61C1877 1490.61 1901 1486.61 1923 1478.61C1944.33 1470.61 1962.67 1459.27 1978 1444.61C1993.33 1429.94 2005.33 1412.61 2014 1392.61C2022 1371.94 2026 1348.94 2026 1323.61C2026 1296.94 2021.67 1270.94 2013 1245.61C2003.67 1220.27 1988 1193.27 1966 1164.61L2128 1032.61C2156.67 1075.27 2178.67 1123.94 2194 1178.61C2209.33 1233.27 2217 1286.27 2217 1337.61ZM2098 1237.61L1832 1237.61L1832 1032.61L2128 1032.61L2098 1237.61ZM2217 565.051C2217 621.717 2208 674.384 2190 723.051C2172 771.051 2146.67 812.717 2114 848.051C2080.67 883.384 2041.67 911.051 1997 931.051C1952.33 950.384 1903.67 960.051 1851 960.051C1797.67 960.051 1749 950.384 1705 931.051C1660.33 911.051 1621.67 883.384 1589 848.051C1555.67 812.717 1530 771.051 1512 723.051C1494 674.384 1485 621.717 1485 565.051C1485 507.717 1494 455.051 1512 407.051C1530 359.051 1555.67 317.384 1589 282.051C1621.67 246.717 1660.33 219.384 1705 200.051C1749 180.051 1797.67 170.051 1851 170.051C1903.67 170.051 1952.33 180.051 1997 200.051C2041.67 219.384 2080.67 246.717 2114 282.051C2146.67 317.384 2172 359.051 2190 407.051C2208 455.051 2217 507.717 2217 565.051ZM2026 565.051C2026 543.051 2022 522.717 2014 504.051C2006 484.717 1994.67 468.051 1980 454.051C1964.67 439.384 1946.33 428.051 1925 420.051C1903 412.051 1878.33 408.051 1851 408.051C1823.67 408.051 1799.33 412.051 1778 420.051C1756 428.051 1737.67 439.384 1723 454.051C1707.67 468.051 1696 484.717 1688 504.051C1680 522.717 1676 543.051 1676 565.051C1676 587.051 1680 607.717 1688 627.051C1696 645.717 1707.67 662.384 1723 677.051C1737.67 691.051 1756 702.051 1778 710.051C1799.33 718.051 1823.67 722.051 1851 722.051C1878.33 722.051 1903 718.051 1925 710.051C1946.33 702.051 1964.67 691.051 1980 677.051C1994.67 662.384 2006 645.717 2014 627.051C2022 607.717 2026 587.051 2026 565.051Z"/>
</mask>
<path d="M2191 1494.61L2191.93 1494.96L2191.94 1494.95L2191.94 1494.95L2191 1494.61ZM2115 1618.61L2115.73 1619.29L2115.73 1619.28L2115 1618.61ZM1999 1699.61L1999.4 1700.52L1999.4 1700.52L1999 1699.61ZM1703 1699.61L1702.6 1700.52L1702.6 1700.52L1703 1699.61ZM1587 1617.61L1586.27 1618.28L1586.27 1618.28L1587 1617.61ZM1512 1492.61L1512.94 1492.27L1512.94 1492.26L1512 1492.61ZM1520 1147.61L1520.92 1148L1520.92 1148L1520 1147.61ZM1620 1012.61L1620.75 1011.94L1620.11 1011.22L1619.37 1011.83L1620 1012.61ZM1753 1163.61L1753.66 1164.36L1754.42 1163.7L1753.75 1162.94L1753 1163.61ZM1696 1235.61L1696.89 1236.07L1696.89 1236.06L1696.9 1236.04L1696 1235.61ZM1688 1391.61L1687.06 1391.96L1687.07 1391.97L1688 1391.61ZM1723 1444.61L1723.69 1443.88L1723.69 1443.88L1723 1444.61ZM1778 1478.61L1778.35 1477.67L1778.35 1477.67L1778 1478.61ZM1923 1478.61L1923.34 1479.55L1923.35 1479.54L1923 1478.61ZM1978 1444.61L1977.31 1443.88L1977.31 1443.88L1978 1444.61ZM2014 1392.61L2014.92 1393L2014.93 1392.98L2014.93 1392.97L2014 1392.61ZM2013 1245.61L2013.95 1245.28L2013.94 1245.27L2013.94 1245.26L2013 1245.61ZM1966 1164.61L1965.37 1163.83L1964.62 1164.44L1965.21 1165.21L1966 1164.61ZM2128 1032.61L2128.83 1032.05L2128.22 1031.14L2127.37 1031.83L2128 1032.61ZM2194 1178.61L2194.96 1178.34L2194.96 1178.34L2194 1178.61ZM2098 1237.61L2098 1238.61L2098.86 1238.61L2098.99 1237.75L2098 1237.61ZM1832 1237.61L1831 1237.61L1831 1238.61L1832 1238.61L1832 1237.61ZM1832 1032.61L1832 1031.61L1831 1031.61L1831 1032.61L1832 1032.61ZM2128 1032.61L2128.99 1032.75L2129.16 1031.61L2128 1031.61L2128 1032.61ZM2216 1337.61C2216 1394.17 2207.35 1446.39 2190.06 1494.27L2191.94 1494.95C2209.32 1446.82 2218 1394.38 2218 1337.61L2216 1337.61ZM2190.07 1494.25C2172.11 1541.47 2146.84 1582.69 2114.27 1617.93L2115.73 1619.28C2148.49 1583.85 2173.89 1542.41 2191.93 1494.96L2190.07 1494.25ZM2114.27 1617.92C2081.7 1652.49 2043.15 1679.41 1998.6 1698.69L1999.4 1700.52C2044.19 1681.14 2082.97 1654.06 2115.73 1619.29L2114.27 1617.92ZM1998.6 1698.69C1954.07 1717.96 1904.88 1727.61 1851 1727.61L1851 1729.61C1905.12 1729.61 1954.59 1719.92 1999.4 1700.52L1998.6 1698.69ZM1851 1727.61C1797.12 1727.61 1747.93 1717.96 1703.4 1698.69L1702.6 1700.52C1747.41 1719.92 1796.88 1729.61 1851 1729.61L1851 1727.61ZM1703.4 1698.69C1658.86 1679.41 1620.31 1652.16 1587.73 1616.93L1586.27 1618.28C1619.03 1653.72 1657.81 1681.14 1702.6 1700.52L1703.4 1698.69ZM1587.73 1616.93C1555.16 1581.7 1530.23 1540.15 1512.94 1492.27L1511.06 1492.95C1528.44 1541.06 1553.5 1582.85 1586.27 1618.28L1587.73 1616.93ZM1512.94 1492.26C1494.98 1443.72 1486 1390.5 1486 1332.61L1484 1332.61C1484 1390.71 1493.02 1444.16 1511.06 1492.95L1512.94 1492.26ZM1486 1332.61C1486 1263.38 1497.65 1201.86 1520.92 1148L1519.08 1147.21C1495.69 1201.35 1484 1263.16 1484 1332.61L1486 1332.61ZM1520.92 1148C1544.19 1093.47 1577.43 1048.61 1620.63 1013.38L1619.37 1011.83C1575.9 1047.27 1542.47 1092.41 1519.08 1147.21L1520.92 1148ZM1619.25 1013.27L1752.25 1164.27L1753.75 1162.94L1620.75 1011.94L1619.25 1013.27ZM1752.34 1162.85C1726.93 1184.92 1707.84 1209.03 1695.1 1235.17L1696.9 1236.04C1709.5 1210.18 1728.41 1186.29 1753.66 1164.36L1752.34 1162.85ZM1695.12 1235.14C1681.7 1260.63 1675 1289.13 1675 1320.61L1677 1320.61C1677 1289.42 1683.63 1261.25 1696.89 1236.07L1695.12 1235.14ZM1675 1320.61C1675 1346.71 1679.02 1370.5 1687.06 1391.96L1688.94 1391.25C1680.98 1370.05 1677 1346.5 1677 1320.61L1675 1320.61ZM1687.07 1391.97C1695.12 1412.76 1706.86 1430.56 1722.31 1445.33L1723.69 1443.88C1708.47 1429.32 1696.88 1411.78 1688.93 1391.24L1687.07 1391.97ZM1722.31 1445.33C1737.75 1460.09 1756.2 1471.5 1777.65 1479.54L1778.35 1477.67C1757.14 1469.71 1738.92 1458.45 1723.69 1443.88L1722.31 1445.33ZM1777.65 1479.54C1799.11 1487.59 1823.57 1491.61 1851 1491.61L1851 1489.61C1823.76 1489.61 1799.55 1485.62 1778.35 1477.67L1777.65 1479.54ZM1851 1491.61C1877.1 1491.61 1901.22 1487.59 1923.34 1479.55L1922.66 1477.67C1900.78 1485.62 1876.9 1489.61 1851 1489.61L1851 1491.61ZM1923.35 1479.54C1944.8 1471.5 1963.25 1460.09 1978.69 1445.33L1977.31 1443.88C1962.08 1458.45 1943.87 1469.71 1922.65 1477.67L1923.35 1479.54ZM1978.69 1445.33C1994.12 1430.57 2006.2 1413.12 2014.92 1393L2013.08 1392.21C2004.47 1412.09 1992.54 1429.31 1977.31 1443.88L1978.69 1445.33ZM2014.93 1392.97C2022.98 1372.17 2027 1349.04 2027 1323.61L2025 1323.61C2025 1348.83 2021.02 1371.71 2013.07 1392.24L2014.93 1392.97ZM2027 1323.61C2027 1296.83 2022.65 1270.72 2013.95 1245.28L2012.05 1245.93C2020.69 1271.16 2025 1297.05 2025 1323.61L2027 1323.61ZM2013.94 1245.26C2004.56 1219.81 1988.84 1192.72 1966.79 1164L1965.21 1165.21C1987.16 1193.83 2002.77 1220.74 2012.06 1245.95L2013.94 1245.26ZM1966.63 1165.38L2128.63 1033.38L2127.37 1031.83L1965.37 1163.83L1966.63 1165.38ZM2127.17 1033.16C2155.77 1075.73 2177.73 1124.3 2193.04 1178.88L2194.96 1178.34C2179.6 1123.58 2157.56 1074.81 2128.83 1032.05L2127.17 1033.16ZM2193.04 1178.88C2208.35 1233.46 2216 1286.37 2216 1337.61L2218 1337.61C2218 1286.17 2210.32 1233.08 2194.96 1178.34L2193.04 1178.88ZM2098 1236.61L1832 1236.61L1832 1238.61L2098 1238.61L2098 1236.61ZM1833 1237.61L1833 1032.61L1831 1032.61L1831 1237.61L1833 1237.61ZM1832 1033.61L2128 1033.61L2128 1031.61L1832 1031.61L1832 1033.61ZM2127.01 1032.46L2097.01 1237.46L2098.99 1237.75L2128.99 1032.75L2127.01 1032.46ZM2190 723.051L2190.94 723.402L2190.94 723.398L2190 723.051ZM2114 848.051L2114.73 848.737L2114.73 848.73L2114 848.051ZM1997 931.051L1997.4 931.969L1997.41 931.963L1997 931.051ZM1705 931.051L1704.59 931.963L1704.6 931.966L1705 931.051ZM1589 848.051L1589.73 847.372L1589.73 847.365L1589 848.051ZM1512 723.051L1511.06 723.398L1511.06 723.402L1512 723.051ZM1512 407.051L1512.94 407.402L1512.94 407.402L1512 407.051ZM1589 282.051L1589.73 282.737L1589.73 282.73L1589 282.051ZM1705 200.051L1705.4 200.968L1705.41 200.965L1705.41 200.961L1705 200.051ZM1997 200.051L1996.59 200.963L1996.6 200.968L1997 200.051ZM2114 282.051L2114.73 281.372L2114.73 281.365L2114 282.051ZM2190 407.051L2189.06 407.402L2189.06 407.402L2190 407.051ZM2014 504.051L2013.08 504.433L2013.08 504.445L2014 504.051ZM1980 454.051L1979.31 454.773L1979.31 454.774L1980 454.051ZM1925 420.051L1925.35 419.114L1925.34 419.111L1925 420.051ZM1778 420.051L1778.34 420.991L1778.35 420.987L1778 420.051ZM1723 454.051L1723.67 454.789L1723.69 454.774L1723.71 454.758L1723 454.051ZM1688 504.051L1688.92 504.445L1688.92 504.433L1688 504.051ZM1688 627.051L1687.08 627.433L1687.08 627.445L1688 627.051ZM1723 677.051L1722.31 677.773L1722.31 677.774L1723 677.051ZM1778 710.051L1778.35 709.114L1778.34 709.111L1778 710.051ZM1925 710.051L1925.34 710.991L1925.35 710.987L1925 710.051ZM1980 677.051L1980.67 677.789L1980.69 677.774L1980.71 677.758L1980 677.051ZM2014 627.051L2014.92 627.445L2014.92 627.433L2014 627.051ZM2216 565.051C2216 621.61 2207.02 674.158 2189.06 722.704L2190.94 723.398C2208.98 674.61 2218 621.825 2218 565.051L2216 565.051ZM2189.06 722.7C2171.11 770.586 2145.84 812.14 2113.27 847.372L2114.73 848.73C2147.49 813.295 2172.89 771.515 2190.94 723.402L2189.06 722.7ZM2113.27 847.365C2080.03 882.601 2041.14 910.191 1996.59 930.138L1997.41 931.963C2042.19 911.91 2081.3 884.167 2114.73 848.737L2113.27 847.365ZM1996.6 930.133C1952.07 949.408 1903.54 959.051 1851 959.051L1851 961.051C1903.79 961.051 1952.6 951.36 1997.4 931.968L1996.6 930.133ZM1851 959.051C1797.79 959.051 1749.26 949.407 1705.4 930.135L1704.6 931.966C1748.74 951.361 1797.54 961.051 1851 961.051L1851 959.051ZM1705.41 930.138C1660.86 910.192 1622.31 882.604 1589.73 847.372L1588.27 848.73C1621.03 884.164 1659.8 911.909 1704.59 931.963L1705.41 930.138ZM1589.73 847.365C1556.49 812.133 1530.89 770.582 1512.94 722.7L1511.06 723.402C1529.11 771.519 1554.84 813.302 1588.27 848.737L1589.73 847.365ZM1512.94 722.704C1494.98 674.158 1486 621.61 1486 565.051L1484 565.051C1484 621.825 1493.02 674.61 1511.06 723.398L1512.94 722.704ZM1486 565.051C1486 507.823 1494.98 455.277 1512.94 407.402L1511.06 406.7C1493.02 454.824 1484 507.612 1484 565.051L1486 565.051ZM1512.94 407.402C1530.89 359.519 1556.49 317.968 1589.73 282.737L1588.27 281.365C1554.84 316.8 1529.11 358.582 1511.06 406.7L1512.94 407.402ZM1589.73 282.73C1622.31 247.5 1660.86 220.247 1705.4 200.968L1704.6 199.133C1659.81 218.521 1621.03 245.935 1588.27 281.372L1589.73 282.73ZM1705.41 200.961C1749.27 181.026 1797.79 171.051 1851 171.051L1851 169.051C1797.54 169.051 1748.73 179.075 1704.59 199.14L1705.41 200.961ZM1851 171.051C1903.54 171.051 1952.06 181.025 1996.59 200.963L1997.41 199.138C1952.6 179.076 1903.8 169.051 1851 169.051L1851 171.051ZM1996.6 200.968C2041.15 220.248 2080.03 247.503 2113.27 282.737L2114.73 281.365C2081.3 245.932 2042.19 218.52 1997.4 199.133L1996.6 200.968ZM2113.27 282.73C2145.84 317.962 2171.11 359.515 2189.06 407.402L2190.94 406.7C2172.89 358.586 2147.49 316.806 2114.73 281.372L2113.27 282.73ZM2189.06 407.402C2207.02 455.277 2216 507.823 2216 565.051L2218 565.051C2218 507.612 2208.98 454.824 2190.94 406.7L2189.06 407.402ZM2027 565.051C2027 542.927 2022.98 522.458 2014.92 503.657L2013.08 504.445C2021.02 522.977 2025 543.175 2025 565.051L2027 565.051ZM2014.92 503.668C2006.87 484.211 1995.46 467.427 1980.69 453.327L1979.31 454.774C1993.87 468.675 2005.13 485.224 2013.08 504.433L2014.92 503.668ZM1980.69 453.328C1965.25 438.561 1946.8 427.158 1925.35 419.114L1924.65 420.987C1945.87 428.943 1964.08 440.207 1979.31 454.773L1980.69 453.328ZM1925.34 419.111C1903.22 411.065 1878.43 407.051 1851 407.051L1851 409.051C1878.24 409.051 1902.78 413.036 1924.66 420.991L1925.34 419.111ZM1851 407.051C1823.57 407.051 1799.11 411.065 1777.65 419.114L1778.35 420.987C1799.55 413.037 1823.76 409.051 1851 409.051L1851 407.051ZM1777.66 419.111C1755.54 427.154 1737.08 438.561 1722.29 453.344L1723.71 454.758C1738.26 440.207 1756.46 428.947 1778.34 420.991L1777.66 419.111ZM1722.33 453.312C1706.88 467.412 1695.13 484.201 1687.08 503.668L1688.92 504.433C1696.87 485.234 1708.45 468.69 1723.67 454.789L1722.33 453.312ZM1687.08 503.657C1679.02 522.458 1675 542.927 1675 565.051L1677 565.051C1677 543.175 1680.98 522.977 1688.92 504.445L1687.08 503.657ZM1675 565.051C1675 587.175 1679.02 607.972 1687.08 627.433L1688.92 626.668C1680.98 607.462 1677 586.926 1677 565.051L1675 565.051ZM1687.08 627.445C1695.14 646.241 1706.88 663.018 1722.31 677.773L1723.69 676.328C1708.45 661.75 1696.86 645.194 1688.92 626.657L1687.08 627.445ZM1722.31 677.774C1737.09 691.883 1755.55 702.951 1777.66 710.991L1778.34 709.111C1756.45 701.151 1738.24 690.218 1723.69 676.327L1722.31 677.774ZM1777.65 710.987C1799.11 719.037 1823.57 723.051 1851 723.051L1851 721.051C1823.76 721.051 1799.55 717.065 1778.35 709.114L1777.65 710.987ZM1851 723.051C1878.43 723.051 1903.22 719.036 1925.34 710.991L1924.66 709.111C1902.78 717.065 1878.24 721.051 1851 721.051L1851 723.051ZM1925.35 710.987C1946.79 702.947 1965.24 691.883 1980.67 677.789L1979.33 676.312C1964.1 690.218 1945.87 701.155 1924.65 709.114L1925.35 710.987ZM1980.71 677.758C1995.46 663.003 2006.87 646.231 2014.92 627.445L2013.08 626.657C2005.13 645.204 1993.87 661.765 1979.29 676.344L1980.71 677.758ZM2014.92 627.433C2022.98 607.972 2027 587.175 2027 565.051L2025 565.051C2025 586.926 2021.02 607.462 2013.08 626.668L2014.92 627.433Z" fill="#DFDFDF" mask="url(#path-3-outside-1_10_31)"/>
<g filter="url(#filter0_f_10_31)">
<ellipse cx="889.943" cy="1191.98" rx="176.673" ry="314.698" transform="rotate(-25.2255 889.943 1191.98)" fill="#FF00E6" fill-opacity="0.15"/>
</g>
</g>
<defs>
<filter id="filter0_f_10_31" x="281.296" y="497.433" width="1217.29" height="1389.1" filterUnits="userSpaceOnUse" color-interpolation-filters="sRGB">
<feFlood flood-opacity="0" result="BackgroundImageFix"/>
<feBlend mode="normal" in="SourceGraphic" in2="BackgroundImageFix" result="shape"/>
<feGaussianBlur stdDeviation="200" result="effect1_foregroundBlur_10_31"/>
</filter>
</defs>
</svg>
