<svg width="58" height="58" viewBox="0 0 58 58" fill="none" xmlns="http://www.w3.org/2000/svg">
<path d="M49.8333 29.8334H28.1667V8.16671C28.1667 7.7065 27.7935 7.33337 27.3333 7.33337C14.4467 7.33337 4 17.78 4 30.6667C4 43.5534 14.4467 54 27.3333 54C40.22 54 50.6666 43.5534 50.6666 30.6667C50.6666 30.2065 50.2935 29.8334 49.8333 29.8334ZM27.3333 52.3334C15.3672 52.3362 5.66437 42.638 5.66146 30.6719C5.65875 19.026 14.8626 9.46098 26.5 9.01587V30.6667C26.5 31.1269 26.8731 31.5 27.3333 31.5H48.9841C48.5224 43.1271 38.9696 52.3193 27.3333 52.3334Z" fill="#D45006"/>
<path d="M30.6666 4C30.2064 4 29.8333 4.37312 29.8333 4.83333V27.3333C29.8333 27.7935 30.2064 28.1667 30.6666 28.1667H53.1666C53.6268 28.1667 53.9999 27.7935 53.9999 27.3333C53.9852 14.4528 43.5471 4.01469 30.6666 4ZM31.4999 26.5V5.6825C42.8055 6.13239 51.8675 15.1944 52.3174 26.5H31.4999Z" fill="#D45006"/>
</svg>
