<svg width="58" height="58" viewBox="0 0 58 58" fill="none" xmlns="http://www.w3.org/2000/svg">
<path d="M46.6778 11.3225C41.9559 6.60052 35.6779 4.00012 29.0001 4.00012C22.3223 4.00012 16.0442 6.60052 11.3224 11.3225C6.6005 16.0443 4 22.3224 4 29.0001C4 35.6779 6.6005 41.956 11.3224 46.6778C16.0443 51.3997 22.3223 54.0001 29.0001 54.0001C35.6778 54.0001 41.956 51.3997 46.6777 46.6777C51.3998 41.9559 54.0002 35.6778 54.0002 29.0001C54.0002 22.3225 51.3997 16.0443 46.6778 11.3225ZM52.4881 28.104H45.693C45.3704 22.0261 41.7863 16.7994 36.6631 14.1459L39.7139 8.08022C47.053 11.8541 52.1593 19.3782 52.4881 28.104ZM29.0001 5.49339C32.3266 5.49339 35.493 6.18949 38.3637 7.44105L35.3067 13.5193C33.3596 12.7232 31.2304 12.2831 29.0001 12.2831C22.6667 12.2831 17.1446 15.8234 14.3088 21.0292L7.78273 18.8867C11.5701 10.9728 19.657 5.49339 29.0001 5.49339ZM14.0857 32.0691C14.0031 31.6651 13.6087 31.4053 13.2045 31.4873C12.8005 31.57 12.54 31.9645 12.6227 32.3686C13.3833 36.086 15.4231 39.4709 18.3662 41.8997C21.1572 44.203 24.643 45.538 28.2534 45.7003V52.494C15.636 52.0981 5.49327 41.7119 5.49327 29.0001C5.49327 25.913 6.09268 22.9635 7.17921 20.2603L13.6493 22.3843C12.771 24.4144 12.283 26.6512 12.283 29.0001C12.283 29.4125 12.6173 29.7468 13.0297 29.7468C13.4421 29.7468 13.7764 29.4126 13.7764 29.0001C13.7764 20.6058 20.6058 13.7763 29.0002 13.7763C37.3946 13.7763 44.2239 20.6058 44.2239 29.0001C44.2239 37.3945 37.3945 44.2239 29.0001 44.2239C21.7993 44.2239 15.5269 39.1121 14.0857 32.0691ZM29.7468 52.4939V45.6997C38.4215 45.3164 45.3984 38.2914 45.7053 29.5974H52.4993C52.1875 42.0357 42.166 52.1042 29.7468 52.4939Z" fill="#D45006"/>
<path d="M22.5883 25.6356H19.6019C19.1896 25.6356 18.8552 25.9697 18.8552 26.3822V34.0678C18.8552 34.4801 19.1895 34.8145 19.6019 34.8145H22.5883C23.0007 34.8145 23.335 34.4803 23.335 34.0678V26.3822C23.335 25.9697 23.0007 25.6356 22.5883 25.6356ZM21.8417 33.321H20.3485V27.1287H21.8417V33.321Z" fill="#D45006"/>
<path d="M39.0135 27.6469H36.0272C35.6148 27.6469 35.2805 27.9811 35.2805 28.3936V34.0678C35.2805 34.4801 35.6148 34.8145 36.0272 34.8145H39.0135C39.4259 34.8145 39.7602 34.4803 39.7602 34.0678V28.3936C39.7602 27.9811 39.426 27.6469 39.0135 27.6469ZM38.267 33.3212H36.7739V29.1403H38.267V33.3212Z" fill="#D45006"/>
<path d="M33.7302 25.6356H30.7438C30.3313 25.6356 29.9971 25.9697 29.9971 26.3822V34.0678C29.9971 34.4801 30.3313 34.8145 30.7438 34.8145H33.7302C34.1426 34.8145 34.4769 34.4803 34.4769 34.0678V26.3822C34.4769 25.9697 34.1426 25.6356 33.7302 25.6356ZM32.9835 33.321H31.4903V27.1287H32.9835V33.321Z" fill="#D45006"/>
<path d="M28.1132 21.9725H25.1268C24.7145 21.9725 24.3801 22.3067 24.3801 22.7192V34.0676C24.3801 34.48 24.7144 34.8144 25.1268 34.8144H28.1132C28.5256 34.8144 28.8599 34.4802 28.8599 34.0677V22.7192C28.8598 22.3068 28.5256 21.9725 28.1132 21.9725ZM27.3666 33.321H25.8734V23.4659H27.3666V33.321Z" fill="#D45006"/>
</svg>
