<svg width="58" height="58" viewBox="0 0 58 58" fill="none" xmlns="http://www.w3.org/2000/svg">
<g clip-path="url(#clip0_16_105)">
<path d="M48.8969 12.9746C47.7189 10.3029 46.0397 7.92845 43.9062 5.91727C39.5056 1.76884 33.7429 -0.318695 27.682 0.0394972C22.1489 0.366311 16.9862 2.81509 13.1445 6.93487C9.3053 11.0518 7.21743 16.3734 7.26546 21.9193C7.33467 29.9231 11.9138 35.7775 16.7619 41.9757C20.0516 46.1816 23.4533 50.5307 25.7588 55.8858C26.3117 57.1702 27.5841 58.0001 29.0001 58.0001C30.4157 58.0001 31.6887 57.168 32.2432 55.8803C34.5487 50.5278 37.9493 46.1802 41.2378 41.9757C46.1218 35.7315 50.735 29.8336 50.735 21.7357C50.7351 18.6885 50.1167 15.7408 48.8969 12.9746ZM39.8995 40.9287C36.5444 45.2182 33.075 49.6537 30.6827 55.208C30.3967 55.8719 29.7363 56.3008 29.0001 56.3008C28.2634 56.3008 27.6038 55.874 27.3195 55.2137C24.9271 49.6567 21.4565 45.2197 18.1003 40.9286C13.4352 34.9644 9.02878 29.3307 8.96455 21.9044C8.92037 16.7956 10.8463 11.8909 14.3873 8.0935C17.9298 4.29453 22.687 2.03652 27.7822 1.73564C28.194 1.7114 28.604 1.69928 29.0123 1.69928C34.1475 1.69928 38.9829 3.61134 42.7407 7.15373C44.708 9.00824 46.2562 11.1974 47.3421 13.6602C48.466 16.209 49.0359 18.9261 49.0359 21.7357C49.0359 29.2479 44.598 34.9218 39.8995 40.9287Z" fill="#D45006"/>
<path d="M38.4441 18.8814C38.2044 18.1436 37.5482 17.6668 36.7725 17.6668H32.1116L30.6714 13.2341C30.4317 12.4963 29.7755 12.0195 28.9997 12.0195C28.224 12.0195 27.5679 12.4963 27.3282 13.2341L25.8879 17.6668H21.2271C20.4514 17.6668 19.7951 18.1435 19.5554 18.8814C19.3157 19.6192 19.5664 20.3905 20.194 20.8464L23.9645 23.586L22.5243 28.0187C22.2846 28.7565 22.5352 29.5278 23.1627 29.9838C23.7904 30.4397 24.6015 30.4397 25.2291 29.9838L28.9997 27.2442L32.7704 29.9838C33.0842 30.2118 33.4438 30.3257 33.8035 30.3257C34.1632 30.3257 34.5228 30.2118 34.8366 29.9838C35.4643 29.5278 35.7149 28.7565 35.4752 28.0186L34.0349 23.586L37.8055 20.8464C38.4331 20.3905 38.6838 19.6192 38.4441 18.8814ZM36.8069 19.4718L32.5369 22.5742C32.2391 22.7906 32.1145 23.174 32.2282 23.5241L33.8592 28.5437C33.8672 28.5681 33.8724 28.5842 33.8379 28.6092C33.8037 28.634 33.7899 28.6243 33.7693 28.6092L29.4993 25.5068C29.2016 25.2904 28.7983 25.2904 28.5006 25.5068L24.2305 28.6091C24.2098 28.6242 24.1961 28.6341 24.1617 28.6091C24.1274 28.5842 24.1326 28.5681 24.1404 28.5437L25.7715 23.5239C25.8852 23.1739 25.7606 22.7905 25.4628 22.5741L21.1928 19.4717C21.172 19.4566 21.1585 19.4466 21.1715 19.4063C21.1845 19.366 21.2015 19.366 21.2271 19.366H26.5052C26.8732 19.366 27.1995 19.129 27.3132 18.7789L28.9442 13.7592C28.9521 13.7349 28.9574 13.7188 28.9998 13.7188C29.0423 13.7188 29.0475 13.7349 29.0555 13.7593L30.6864 18.779C30.8001 19.129 31.1263 19.3661 31.4944 19.3661H36.7725C36.7981 19.3661 36.8149 19.3661 36.8281 19.4064C36.8412 19.4468 36.8275 19.4567 36.8069 19.4718Z" fill="#D45006"/>
<path d="M19.327 12.0628C24.1907 7.19931 31.9512 6.71537 37.3789 10.9371C37.7493 11.2252 38.283 11.1586 38.571 10.7881C38.8591 10.4177 38.7924 9.88394 38.4221 9.59587C32.3192 4.84908 23.5936 5.39305 18.1254 10.8612C12.6573 16.3294 12.1132 25.0551 16.8601 31.1579C17.0276 31.3732 17.2781 31.4859 17.5313 31.4859C17.7135 31.4859 17.8973 31.4275 18.0522 31.307C18.4227 31.0189 18.4893 30.4851 18.2012 30.1148C13.9796 24.687 14.4635 16.9262 19.327 12.0628Z" fill="#D45006"/>
<path d="M39.9473 12.1644C39.5769 12.4525 39.5103 12.9863 39.7984 13.3566C44.0202 18.7844 43.5363 26.545 38.6727 31.4085C33.8091 36.2721 26.0486 36.7559 20.6207 32.5341C20.2503 32.2461 19.7165 32.3128 19.4285 32.6831C19.1404 33.0535 19.2072 33.5872 19.5775 33.8754C22.3592 36.039 25.6853 37.1034 29.0001 37.1034C32.9576 37.1034 36.8985 35.5858 39.8743 32.61C45.3424 27.1419 45.8864 18.4161 41.1396 12.3134C40.8515 11.9431 40.3176 11.8762 39.9473 12.1644Z" fill="#D45006"/>
</g>
<defs>
<clipPath id="clip0_16_105">
<rect width="58" height="58" fill="white"/>
</clipPath>
</defs>
</svg>
