<svg width="58" height="58" viewBox="0 0 58 58" fill="none" xmlns="http://www.w3.org/2000/svg">
<path d="M51.4128 33.2865H50.6712V26.5468C50.6712 25.4798 50.145 24.535 49.3412 23.961V23.0433C49.3412 21.7122 48.2681 20.6293 46.9489 20.6293H46.3952L48.5136 17.4926C49.2236 16.4412 48.9536 15.0028 47.9117 14.2862L33.5373 4.40144C33.0326 4.05427 32.4242 3.92615 31.8238 4.04109C31.2237 4.15583 30.7037 4.49949 30.3598 5.00886L17.9528 23.3803H14.5003L15.3332 14.8715C15.3426 14.7756 15.4044 14.6925 15.4905 14.6597C16.5637 14.2514 17.4937 13.4889 18.1092 12.5128C18.1577 12.4359 18.2491 12.392 18.3438 12.4016L23.759 12.9415C24.1472 12.9795 24.4926 12.6941 24.531 12.3025C24.5693 11.9109 24.2858 11.5622 23.8977 11.5235L18.4826 10.9837C17.854 10.9216 17.2545 11.2138 16.9178 11.7478C16.4652 12.4656 15.7814 13.0262 14.9924 13.3263C14.3985 13.5523 13.9906 14.0906 13.9279 14.7313L13.0813 23.3802H12.181L13.4983 9.92273C13.5457 9.43836 13.9742 9.0825 14.4548 9.13103L25.3978 10.2219C25.7859 10.2596 26.1315 9.97449 26.1698 9.58289C26.2081 9.19129 25.9247 8.84256 25.5366 8.80388L14.5936 7.71306C13.3389 7.58816 12.217 8.51638 12.093 9.7826L11.0312 20.6293H9.22289C7.90381 20.6293 6.83055 21.7122 6.83055 23.0433V23.6693C5.75138 24.1707 5 25.2715 5 26.5468V50.8334C5 52.5795 6.40773 54 8.1382 54H47.5331C49.2635 54 50.6712 52.5795 50.6712 50.8334V44.0937H51.4128C52.288 44.0937 53 43.3753 53 42.4922V34.8882C53.0001 34.005 52.288 33.2865 51.4128 33.2865ZM46.9489 22.0543C47.4895 22.0542 47.9291 22.4979 47.9291 23.0434V23.4064C47.7993 23.3898 47.6674 23.3804 47.5331 23.3804H44.5374L45.4329 22.0543H46.9489ZM31.5266 5.81121C31.6582 5.61638 31.8571 5.48494 32.0867 5.44099C32.1415 5.43054 32.1966 5.42527 32.2513 5.42527C32.4252 5.42527 32.5951 5.47781 32.742 5.57878L47.1165 15.4636C47.515 15.7377 47.6184 16.2879 47.3468 16.69L42.8287 23.3801H41.7444L43.9595 20.1001C44.3188 19.5681 44.3484 18.8912 44.0366 18.3333C43.6222 17.5921 43.4542 16.7193 43.5635 15.8757C43.6448 15.248 43.3711 14.6353 42.8493 14.2765L35.3976 9.15232C34.8757 8.79343 34.2105 8.76052 33.6613 9.06648C32.9234 9.47761 32.057 9.63904 31.2218 9.52107C30.6024 9.43338 29.9742 9.7156 29.6203 10.2395L20.7459 23.3802H19.6616L31.5266 5.81121ZM31.8376 17.9099C28.7628 17.9099 26.2389 20.3292 26.0332 23.3802H22.4545L30.7869 11.042H30.787C30.8344 10.9718 30.9129 10.93 30.9935 10.93C31.0042 10.93 31.015 10.9307 31.0257 10.9322C32.1617 11.0926 33.3399 10.8732 34.3437 10.3139C34.4227 10.2698 34.5241 10.2762 34.6023 10.3299L42.0541 15.4542C42.1321 15.5079 42.175 15.6009 42.1633 15.6911C42.0146 16.8385 42.2432 18.0254 42.8067 19.0334C42.8519 19.1143 42.8464 19.218 42.7928 19.2976L40.0358 23.3801H37.6422C37.4363 20.3292 34.9125 17.9099 31.8376 17.9099ZM36.2262 23.3803H27.449C27.6513 21.1157 29.5417 19.3349 31.8376 19.3349C34.1335 19.3348 36.0241 21.1157 36.2262 23.3803ZM8.24263 23.0433C8.24263 22.4978 8.68229 22.0541 9.22289 22.0541H10.8917L10.7619 23.3802H8.24263V23.0433ZM6.41208 26.5468C6.41208 25.5864 7.1864 24.8051 8.1382 24.8051H47.5331C48.4849 24.8051 49.2592 25.5864 49.2592 26.5468V28.5237H6.41208V26.5468ZM49.2592 50.8334C49.2592 51.7937 48.4849 52.5751 47.5331 52.5751H8.1382C7.1864 52.5751 6.41208 51.7937 6.41208 50.8334V48.8564H10.2195C10.6095 48.8564 10.9255 48.5375 10.9255 48.144C10.9255 47.7506 10.6094 47.4316 10.2195 47.4316H6.41208V29.9486H49.2592V33.2865H42.5461H42.546C40.4308 33.2865 38.5986 34.5307 37.7291 36.3315C37.7262 36.3376 37.7229 36.3434 37.7199 36.3495C37.7125 36.3648 37.7062 36.3808 37.699 36.3962C37.5954 36.6182 37.5054 36.8479 37.4322 37.085C37.432 37.0857 37.4318 37.0863 37.4316 37.087C37.2753 37.5937 37.191 38.1321 37.191 38.6901C37.191 41.6697 39.5932 44.0937 42.5459 44.0937H42.546H49.2591V47.4316H14.7404C14.3504 47.4316 14.0344 47.7506 14.0344 48.144C14.0344 48.5375 14.3504 48.8564 14.7404 48.8564H49.2592V50.8334ZM51.588 42.4921C51.588 42.5895 51.5094 42.6688 51.4128 42.6688H42.5462C41.0515 42.6688 39.7483 41.8252 39.0798 40.5851C39.0494 40.5287 39.0204 40.4715 38.9926 40.4136C38.9372 40.2976 38.8871 40.1786 38.8429 40.0567C38.6879 39.6304 38.6033 39.17 38.6033 38.6901C38.6033 38.2102 38.688 37.7499 38.8429 37.3235C38.8872 37.2017 38.9373 37.0827 38.9926 36.9667C39.0204 36.9088 39.0494 36.8516 39.0798 36.7952C39.7483 35.5551 41.0515 34.7114 42.5462 34.7114H51.4128C51.5093 34.7114 51.588 34.7907 51.588 34.8882V42.4921Z" fill="#D45006"/>
<path d="M42.7115 35.7996C41.1319 35.7996 39.8469 37.0963 39.8469 38.6902C39.8469 40.284 41.1319 41.5807 42.7115 41.5807C44.2911 41.5807 45.5762 40.284 45.5762 38.6902C45.5762 37.0963 44.2911 35.7996 42.7115 35.7996ZM42.7115 40.1558C41.9106 40.1558 41.259 39.4983 41.259 38.6902C41.259 37.8821 41.9106 37.2245 42.7115 37.2245C43.5125 37.2245 44.1641 37.882 44.1641 38.6902C44.1641 39.4984 43.5125 40.1558 42.7115 40.1558Z" fill="#D45006"/>
</svg>
