<svg width="58" height="58" viewBox="0 0 58 58" fill="none" xmlns="http://www.w3.org/2000/svg">
<path d="M9.89891 31.2391H7.66863C6.69599 31.2403 5.76352 31.6264 5.07577 32.3127C4.38801 32.9991 4.00113 33.9296 4 34.9003V50.3389C4.00113 51.3096 4.38801 52.2401 5.07577 52.9265C5.76352 53.6128 6.69599 53.9989 7.66863 54H9.89891C10.8715 53.9989 11.804 53.6128 12.4918 52.9265C13.1795 52.2401 13.5664 51.3096 13.5675 50.3389V34.9003C13.5664 33.9296 13.1795 32.9991 12.4918 32.3127C11.804 31.6264 10.8715 31.2403 9.89891 31.2391ZM11.6947 50.3389C11.6941 50.814 11.5047 51.2695 11.1681 51.6055C10.8314 51.9415 10.375 52.1305 9.89891 52.131H7.66863C7.19253 52.1305 6.73609 51.9415 6.39944 51.6055C6.06279 51.2695 5.87341 50.814 5.87284 50.3389V34.9003C5.87341 34.4252 6.06279 33.9696 6.39944 33.6337C6.73609 33.2977 7.19253 33.1087 7.66863 33.1082H9.89891C10.375 33.1087 10.8314 33.2977 11.1681 33.6337C11.5047 33.9696 11.6941 34.4252 11.6947 34.9003V50.3389Z" fill="#D45006"/>
<path d="M23.376 35.1384H21.1462C20.174 35.1403 19.2422 35.5266 18.5549 36.2129C17.8676 36.8992 17.481 37.8293 17.4797 38.7996V50.3389C17.481 51.3096 17.868 52.2402 18.5558 52.9265C19.2437 53.6128 20.1762 53.9989 21.1489 54H23.3786C24.3514 53.999 25.2841 53.613 25.972 52.9267C26.66 52.2403 27.0471 51.3097 27.0483 50.3389V38.7996C27.0471 37.8283 26.6596 36.8973 25.9711 36.2108C25.2826 35.5244 24.3492 35.1387 23.376 35.1384ZM25.1728 50.3389C25.1721 50.8142 24.9825 51.2697 24.6457 51.6057C24.3088 51.9417 23.8522 52.1306 23.376 52.131H21.1462C20.6705 52.1297 20.2147 51.9405 19.8786 51.6046C19.5424 51.2687 19.3533 50.8136 19.3526 50.3389V38.7996C19.3533 38.3244 19.5428 37.8689 19.8795 37.5329C20.2163 37.197 20.6727 37.008 21.1489 37.0074H23.3786C23.8549 37.0079 24.3115 37.1968 24.6484 37.5327C24.9852 37.8687 25.1748 38.3243 25.1755 38.7996L25.1728 50.3389Z" fill="#D45006"/>
<path d="M36.8538 27.9138H34.623C33.6502 27.9151 32.7176 28.3014 32.0299 28.9879C31.3421 29.6745 30.9553 30.6052 30.9543 31.576V50.3383C30.9555 51.309 31.3424 52.2395 32.0301 52.9259C32.7179 53.6122 33.6503 53.9983 34.623 53.9995H36.8538C37.8264 53.9983 38.7589 53.6122 39.4467 52.9259C40.1344 52.2395 40.5213 51.309 40.5224 50.3383V31.5766C40.5216 30.6057 40.1348 29.6748 39.4471 28.9881C38.7593 28.3014 37.8267 27.9151 36.8538 27.9138ZM38.6496 50.3383C38.649 50.8134 38.4596 51.2689 38.123 51.6049C37.7863 51.9409 37.3299 52.1299 36.8538 52.1304H34.623C34.1469 52.1299 33.6904 51.9409 33.3538 51.6049C33.0171 51.2689 32.8278 50.8134 32.8272 50.3383V31.5766C32.8273 31.1012 33.0165 30.6452 33.3532 30.3089C33.6899 29.9726 34.1466 29.7834 34.623 29.7828H36.8538C37.3301 29.7834 37.7867 29.9725 38.1234 30.3087C38.46 30.6449 38.6493 31.1007 38.6496 31.576V50.3383Z" fill="#D45006"/>
<path d="M50.3314 18.1448H48.1006C47.1278 18.1459 46.1952 18.5321 45.5073 19.2185C44.8195 19.905 44.4325 20.8357 44.4314 21.8065V50.3389C44.4327 51.3096 44.8197 52.2402 45.5075 52.9265C46.1954 53.6128 47.1279 53.9989 48.1006 54H50.3314C51.304 53.9989 52.2365 53.6128 52.9242 52.9265C53.612 52.2401 53.9989 51.3095 54 50.3389V21.8065C53.9989 20.8358 53.612 19.9051 52.9243 19.2187C52.2365 18.5323 51.3041 18.146 50.3314 18.1448ZM52.1272 50.3389C52.1266 50.814 51.9372 51.2695 51.6006 51.6055C51.2639 51.9415 50.8075 52.1305 50.3314 52.131H48.1006C47.6244 52.1305 47.1679 51.9415 46.8312 51.6055C46.4944 51.2696 46.3049 50.8141 46.3042 50.3389V21.8065C46.3048 21.3312 46.4942 20.8755 46.831 20.5395C47.1677 20.2034 47.6243 20.0144 48.1006 20.0138H50.3314C50.8075 20.0145 51.264 20.2036 51.6006 20.5397C51.9372 20.8757 52.1266 21.3313 52.1272 21.8065V50.3389Z" fill="#D45006"/>
<path d="M8.7837 24.3237C9.39371 24.3232 9.99347 24.1671 10.526 23.8702C11.0585 23.5733 11.5061 23.1454 11.8263 22.6272L18.6841 24.6564C18.6841 24.6836 18.6782 24.7098 18.6782 24.7365C18.6745 25.2478 18.7808 25.754 18.9897 26.2209C19.1987 26.6878 19.5055 27.1046 19.8895 27.4432C20.2735 27.7817 20.7257 28.0342 21.2158 28.1836C21.7058 28.333 22.2222 28.3759 22.7303 28.3093C23.2383 28.2426 23.7261 28.0681 24.1608 27.7975C24.5956 27.5268 24.9671 27.1663 25.2505 26.7403C25.5338 26.3142 25.7223 25.8325 25.8033 25.3276C25.8843 24.8226 25.8559 24.3063 25.7201 23.8132L33.2168 19.4765C33.7912 20.0491 34.5438 20.4095 35.3508 20.4983C36.1578 20.5872 36.9711 20.3992 37.6568 19.9653C38.3425 19.5315 38.8597 18.8776 39.1234 18.1113C39.3871 17.345 39.3816 16.5119 39.1077 15.7492L46.9099 10.3707C47.5795 10.9396 48.4335 11.2462 49.3129 11.2332C50.1922 11.2203 51.0368 10.8887 51.6893 10.3003C52.3418 9.71191 52.7576 8.90681 52.8593 8.03508C52.961 7.16334 52.7416 6.28444 52.242 5.56218C51.7424 4.83992 50.9967 4.32358 50.1439 4.10938C49.2911 3.89518 48.3893 3.99775 47.6067 4.39797C46.824 4.79818 46.2139 5.46874 45.89 6.28466C45.5661 7.10058 45.5505 8.00621 45.8461 8.83275L38.0423 14.2129C37.4607 13.7228 36.7376 13.4306 35.9782 13.3788C35.2188 13.3271 34.4626 13.5184 33.8197 13.925C33.1767 14.3317 32.6805 14.9323 32.4032 15.6398C32.1259 16.3472 32.0819 17.1244 32.2777 17.8585L24.782 22.1968C24.4004 21.817 23.9374 21.5286 23.4279 21.3532C22.9185 21.1777 22.3758 21.1198 21.8407 21.1838C21.3055 21.2478 20.7919 21.432 20.3384 21.7226C19.8849 22.0132 19.5034 22.4026 19.2224 22.8616L12.3603 20.8324C12.3603 20.8046 12.364 20.779 12.364 20.7496C12.3639 20.043 12.1539 19.3522 11.7604 18.7647C11.3669 18.1772 10.8077 17.7193 10.1535 17.4489C9.49924 17.1786 8.77937 17.1079 8.08489 17.2458C7.39041 17.3838 6.7525 17.7241 6.25184 18.2238C5.75117 18.7235 5.41023 19.3602 5.27213 20.0533C5.13402 20.7464 5.20496 21.4648 5.47596 22.1176C5.74696 22.7705 6.20586 23.3285 6.79463 23.7211C7.3834 24.1136 8.0756 24.3237 8.7837 24.3237ZM49.2162 5.93951C49.5101 5.93944 49.799 6.01509 50.055 6.15913C50.311 6.30318 50.5254 6.51075 50.6774 6.76174C50.8294 7.01273 50.9139 7.29864 50.9228 7.59179C50.9316 7.88494 50.8644 8.17541 50.7278 8.43506C50.5912 8.69471 50.3896 8.91476 50.1428 9.07389C49.8959 9.23303 49.6121 9.32586 49.3187 9.34341C49.0254 9.36096 48.7324 9.30263 48.4683 9.17406C48.2042 9.04549 47.9778 8.85104 47.811 8.60954C47.6131 8.32664 47.5077 7.9896 47.5092 7.64459C47.5094 7.19269 47.6892 6.75933 48.0092 6.43964C48.3293 6.11995 48.7633 5.94008 49.2162 5.93951ZM35.7371 15.2365C36.0147 15.237 36.2881 15.3049 36.5335 15.4345C36.7789 15.5642 36.989 15.7515 37.1455 15.9804C37.3432 16.2618 37.4477 16.5979 37.444 16.9416C37.4444 17.3175 37.3201 17.6829 37.0905 17.9808C36.8608 18.2787 36.5388 18.4924 36.1747 18.5884C35.8105 18.6844 35.4248 18.6573 35.0777 18.5115C34.7305 18.3656 34.4416 18.1092 34.2559 17.7821C34.1064 17.5273 34.0284 17.237 34.0301 16.9416C34.0303 16.4897 34.2101 16.0564 34.5301 15.7367C34.8502 15.417 35.2843 15.2371 35.7371 15.2365ZM22.2633 23.0277C22.5634 23.0283 22.858 23.108 23.1173 23.2587C23.3767 23.4094 23.5915 23.6257 23.7402 23.8858C23.8918 24.1418 23.9711 24.4339 23.9698 24.7312C23.9453 25.1672 23.7545 25.5773 23.4366 25.8773C23.1187 26.1773 22.6977 26.3445 22.2601 26.3445C21.8226 26.3445 21.4016 26.1773 21.0837 25.8773C20.7657 25.5773 20.5749 25.1672 20.5505 24.7312C20.5499 24.5685 20.5729 24.4066 20.619 24.2506C20.7258 23.8979 20.9432 23.5888 21.2392 23.3687C21.5352 23.1486 21.8942 23.0291 22.2633 23.0277ZM8.7837 19.0461C9.12157 19.046 9.45187 19.1459 9.73284 19.3332C10.0138 19.5204 10.2328 19.7866 10.3622 20.0981C10.4915 20.4096 10.5254 20.7524 10.4595 21.0831C10.3936 21.4138 10.2309 21.7176 9.992 21.956C9.75309 22.1944 9.4487 22.3568 9.11733 22.4225C8.78595 22.4883 8.44248 22.4545 8.13036 22.3254C7.81823 22.1963 7.55148 21.9777 7.36384 21.6973C7.1762 21.417 7.0761 21.0873 7.07621 20.7502C7.07678 20.2984 7.25685 19.8653 7.57695 19.5459C7.89704 19.2264 8.33102 19.0467 8.7837 19.0461Z" fill="#D45006"/>
</svg>
