<svg width="1920" height="1700" viewBox="0 0 1920 1700" fill="none" xmlns="http://www.w3.org/2000/svg">
<rect width="1920" height="1700" fill="#1A1A1A"/>
<mask id="mask0_10_58" style="mask-type:alpha" maskUnits="userSpaceOnUse" x="0" y="0" width="1920" height="1700">
<rect width="1920" height="1700" fill="#1A1A1A"/>
</mask>
<g mask="url(#mask0_10_58)">
<g style="mix-blend-mode:plus-lighter" filter="url(#filter0_f_10_58)">
<ellipse cx="1552.24" cy="38.8863" rx="126" ry="179" transform="rotate(34.5122 1552.24 38.8863)" fill="#FFB800"/>
</g>
<path d="M474.254 791.2H515.254L515.254 850.4C506.987 856.133 497.387 860.533 486.454 863.6C475.521 866.667 464.787 868.2 454.254 868.2C439.321 868.2 425.921 865.133 414.054 859C402.187 852.733 392.854 844.067 386.054 833C379.387 821.8 376.054 809.133 376.054 795C376.054 780.867 379.387 768.267 386.054 757.2C392.854 746 402.254 737.333 414.254 731.2C426.387 724.933 440.054 721.8 455.254 721.8C468.987 721.8 481.254 724.133 492.054 728.8C502.987 733.333 512.054 740 519.254 748.8L489.054 775.4C480.254 765.133 469.787 760 457.654 760C447.254 760 438.987 763.133 432.854 769.4C426.721 775.667 423.654 784.2 423.654 795C423.654 805.533 426.654 814 432.654 820.4C438.787 826.8 446.921 830 457.054 830C463.054 830 468.787 828.867 474.254 826.6L474.254 791.2ZM608.765 868.2C593.698 868.2 580.165 865.067 568.165 858.8C556.165 852.533 546.765 843.867 539.965 832.8C533.165 821.6 529.765 809 529.765 795C529.765 781 533.165 768.467 539.965 757.4C546.765 746.2 556.165 737.467 568.165 731.2C580.165 724.933 593.698 721.8 608.765 721.8C623.832 721.8 637.365 724.933 649.365 731.2C661.365 737.467 670.765 746.2 677.565 757.4C684.365 768.467 687.765 781 687.765 795C687.765 809 684.365 821.6 677.565 832.8C670.765 843.867 661.365 852.533 649.365 858.8C637.365 865.067 623.832 868.2 608.765 868.2ZM608.765 830C614.632 830 619.898 828.6 624.565 825.8C629.365 822.867 633.165 818.8 635.965 813.6C638.765 808.267 640.165 802.067 640.165 795C640.165 787.933 638.765 781.8 635.965 776.6C633.165 771.267 629.365 767.2 624.565 764.4C619.898 761.467 614.632 760 608.765 760C602.898 760 597.565 761.467 592.765 764.4C588.098 767.2 584.365 771.267 581.565 776.6C578.765 781.8 577.365 787.933 577.365 795C577.365 802.067 578.765 808.267 581.565 813.6C584.365 818.8 588.098 822.867 592.765 825.8C597.565 828.6 602.898 830 608.765 830ZM697.896 725L751.896 725L742.896 811.4L706.896 811.4L697.896 725ZM724.896 867C717.163 867 710.829 864.667 705.896 860C700.963 855.333 698.496 849.667 698.496 843C698.496 836.2 700.963 830.6 705.896 826.2C710.829 821.667 717.163 819.4 724.896 819.4C732.629 819.4 738.963 821.667 743.896 826.2C748.829 830.6 751.296 836.2 751.296 843C751.296 849.667 748.829 855.333 743.896 860C738.963 864.667 732.629 867 724.896 867ZM767.787 725L836.787 725C852.387 725 866.12 727.867 877.987 733.6C889.987 739.2 899.253 747.267 905.787 757.8C912.453 768.333 915.787 780.733 915.787 795C915.787 809.267 912.453 821.667 905.787 832.2C899.253 842.733 889.987 850.867 877.987 856.6C866.12 862.2 852.387 865 836.787 865L767.787 865L767.787 725ZM834.787 828.2C844.92 828.2 852.987 825.333 858.987 819.6C865.12 813.733 868.187 805.533 868.187 795C868.187 784.467 865.12 776.333 858.987 770.6C852.987 764.733 844.92 761.8 834.787 761.8H814.987V828.2H834.787ZM993.021 829.8L980.221 829.8L980.221 865L933.021 865L933.021 725L1000.42 725C1013.35 725 1024.62 727.133 1034.22 731.4C1043.82 735.667 1051.22 741.8 1056.42 749.8C1061.62 757.8 1064.22 767.133 1064.22 777.8C1064.22 787.8 1061.95 796.533 1057.42 804C1052.89 811.467 1046.35 817.4 1037.82 821.8L1067.22 865H1016.82L993.021 829.8ZM1016.62 777.8C1016.62 772.6 1015.02 768.6 1011.82 765.8C1008.62 762.867 1003.82 761.4 997.421 761.4L980.221 761.4L980.221 794.2L997.421 794.2C1003.82 794.2 1008.62 792.8 1011.82 790C1015.02 787.067 1016.62 783 1016.62 777.8ZM1149.04 868.2C1127.58 868.2 1110.84 862.4 1098.84 850.8C1086.84 839.2 1080.84 822.933 1080.84 802L1080.84 725H1128.04L1128.04 800.6C1128.04 810.867 1129.84 818.333 1133.44 823C1137.18 827.667 1142.51 830 1149.44 830C1156.38 830 1161.64 827.667 1165.24 823C1168.98 818.333 1170.84 810.867 1170.84 800.6L1170.84 725L1217.24 725L1217.24 802C1217.24 822.933 1211.24 839.2 1199.24 850.8C1187.24 862.4 1170.51 868.2 1149.04 868.2ZM1363.88 865L1363.48 801.2L1333.08 852.4H1312.28L1281.88 803.4L1281.88 865L1238.88 865L1238.88 725L1277.68 725L1323.28 799.6L1367.68 725L1406.48 725L1406.88 865L1363.88 865ZM1481.9 868.2C1470.3 868.2 1458.97 866.933 1447.9 864.4C1436.97 861.733 1427.97 858.2 1420.9 853.8L1436.1 819.4C1442.77 823.267 1450.23 826.4 1458.5 828.8C1466.77 831.067 1474.7 832.2 1482.3 832.2C1488.83 832.2 1493.5 831.6 1496.3 830.4C1499.1 829.067 1500.5 827.133 1500.5 824.6C1500.5 821.667 1498.63 819.467 1494.9 818C1491.3 816.533 1485.3 814.933 1476.9 813.2C1466.1 810.933 1457.1 808.533 1449.9 806C1442.7 803.333 1436.43 799.067 1431.1 793.2C1425.77 787.2 1423.1 779.133 1423.1 769C1423.1 760.2 1425.57 752.2 1430.5 745C1435.43 737.8 1442.77 732.133 1452.5 728C1462.37 723.867 1474.3 721.8 1488.3 721.8C1497.9 721.8 1507.3 722.867 1516.5 725C1525.83 727 1534.03 730 1541.1 734L1526.9 768.2C1513.17 761.267 1500.17 757.8 1487.9 757.8C1475.77 757.8 1469.7 760.733 1469.7 766.6C1469.7 769.4 1471.5 771.533 1475.1 773C1478.7 774.333 1484.63 775.8 1492.9 777.4C1503.57 779.4 1512.57 781.733 1519.9 784.4C1527.23 786.933 1533.57 791.133 1538.9 797C1544.37 802.867 1547.1 810.867 1547.1 821C1547.1 829.8 1544.63 837.8 1539.7 845C1534.77 852.067 1527.37 857.733 1517.5 862C1507.77 866.133 1495.9 868.2 1481.9 868.2Z" fill="black" fill-opacity="0.3"/>
<g style="mix-blend-mode:plus-lighter" filter="url(#filter1_f_10_58)">
<ellipse cx="789.768" cy="687.625" rx="288.208" ry="513.371" transform="rotate(-46.1055 789.768 687.625)" fill="url(#paint0_linear_10_58)" fill-opacity="0.6"/>
</g>
</g>
<defs>
<filter id="filter0_f_10_58" x="907.104" y="-625.016" width="1290.28" height="1327.81" filterUnits="userSpaceOnUse" color-interpolation-filters="sRGB">
<feFlood flood-opacity="0" result="BackgroundImageFix"/>
<feBlend mode="normal" in="SourceGraphic" in2="BackgroundImageFix" result="shape"/>
<feGaussianBlur stdDeviation="250" result="effect1_foregroundBlur_10_58"/>
</filter>
<filter id="filter1_f_10_58" x="-30.7748" y="-124.541" width="1641.09" height="1624.33" filterUnits="userSpaceOnUse" color-interpolation-filters="sRGB">
<feFlood flood-opacity="0" result="BackgroundImageFix"/>
<feBlend mode="normal" in="SourceGraphic" in2="BackgroundImageFix" result="shape"/>
<feGaussianBlur stdDeviation="200" result="effect1_foregroundBlur_10_58"/>
</filter>
<linearGradient id="paint0_linear_10_58" x1="661.034" y1="393.828" x2="985.343" y2="1133.15" gradientUnits="userSpaceOnUse">
<stop stop-color="#FF0F00"/>
<stop offset="1" stop-color="#FF5C00"/>
</linearGradient>
</defs>
</svg>
