<svg width="206" height="40" viewBox="0 0 206 40" fill="none" xmlns="http://www.w3.org/2000/svg">
<g clip-path="url(#clip0_2_11)">
<path d="M73.9427 32.9507H83.7933C91.7317 32.9507 97.2165 27.4413 97.2165 20.3473C97.2165 13.1814 91.7317 7.74391 83.7933 7.74391H73.9427V32.9507ZM79.4995 27.9454V12.7493H83.7933C88.3401 12.7493 91.4069 15.8822 91.4069 20.3473C91.4069 24.8845 88.3401 27.9454 83.7933 27.9454H79.4995ZM102.16 32.9507H107.717V24.8845H112.011L117.495 32.9507H123.99L117.82 23.9483C121.031 22.7601 123.233 20.2035 123.233 16.1343C123.233 13.6857 122.475 11.7052 121.068 10.3007C119.408 8.64429 116.918 7.74391 113.707 7.74391H102.16V32.9507ZM107.717 19.9874V12.7493H113.237C115.944 12.7493 117.604 13.9737 117.604 16.3503C117.604 18.5469 116.052 19.9874 113.346 19.9874H107.717ZM138.785 33.3467C145.568 33.3467 149.862 29.6018 149.862 21.9677V7.74391H144.305V22.1838C144.305 26.1808 142.249 28.2333 138.857 28.2333C135.465 28.2333 133.408 26.1088 133.408 22.0038V7.74391H127.851V22.1479C127.851 29.5657 132.001 33.3467 138.785 33.3467ZM155.527 32.9507H160.976V16.6025L168.012 27.2611H168.157L175.265 16.4944V32.9507H180.786V7.74391H174.796L168.157 18.4028L161.517 7.74391H155.527V32.9507ZM195.833 33.3108C201.281 33.3108 205.106 30.5022 205.106 25.4968C205.106 21.0316 202.22 19.1952 197.096 17.8627C192.73 16.7463 191.647 16.2062 191.647 14.5499C191.647 13.2536 192.766 12.2814 194.895 12.2814C197.024 12.2814 199.225 13.2175 201.462 14.7659L204.349 10.5887C201.787 8.53627 198.647 7.38397 194.967 7.38397C189.807 7.38397 186.126 10.4088 186.126 14.982C186.126 20.0593 189.41 21.4637 194.498 22.7601C198.72 23.8403 199.585 24.5604 199.585 25.9647C199.585 27.5133 198.214 28.4135 195.941 28.4135C193.054 28.4135 190.673 27.2253 188.4 25.3527L185.116 29.2777C188.147 31.9784 192.008 33.3108 195.833 33.3108Z" fill="#FEFEFE"/>
<path d="M13.2789 33.3827C17.8977 33.3827 21.4699 31.5824 24.0679 29.3857V18.4389H13.0985V23.2282H18.6914V26.829C17.2842 27.8373 15.48 28.3414 13.4595 28.3414C8.98499 28.3414 5.80968 24.9566 5.80968 20.3473C5.80968 15.9902 9.02093 12.4252 13.0623 12.4252C15.9851 12.4252 17.7171 13.3616 19.6656 14.982L23.1657 10.7689C20.5318 8.53625 17.7894 7.3118 13.2429 7.3118C5.59309 7.3118 9.15527e-05 13.1814 9.15527e-05 20.3473C9.15527e-05 27.8734 5.41274 33.3827 13.2789 33.3827Z" fill="#E31E24"/>
<path d="M42.2383 33.3827C50.0325 33.3827 55.6975 27.5132 55.6975 20.3473C55.6975 13.1095 50.1046 7.3118 42.3106 7.3118C34.5164 7.3118 28.8512 13.1814 28.8512 20.3473C28.8512 27.5852 34.4443 33.3827 42.2383 33.3827ZM42.3106 28.2694C37.8362 28.2694 34.6608 24.6684 34.6608 20.3473C34.6608 15.9543 37.7639 12.4252 42.2383 12.4252C46.7127 12.4252 49.8881 16.0262 49.8881 20.3473C49.8881 24.7406 46.7848 28.2694 42.3106 28.2694Z" fill="#E31E24"/>
<path d="M61.1297 30.214C61.1297 31.9423 62.5369 33.3467 64.2692 33.3467C66.0011 33.3467 67.3722 31.9423 67.3722 30.214C67.3722 28.4494 66.0011 27.0811 64.2692 27.0811C62.5369 27.0811 61.1297 28.4494 61.1297 30.214ZM66.2176 24.5604L67.3722 7.7439H61.1659L62.2845 24.5604H66.2176Z" fill="#E31E24"/>
<path fill-rule="evenodd" clip-rule="evenodd" d="M36.6728 0.526631C44.0242 -1.52984 51.6475 2.61792 53.9395 9.82444C50.0922 5.09373 43.6634 2.82838 37.4108 4.57755C31.8761 6.12576 27.8618 10.4326 26.442 15.5884C25.7163 8.86805 29.9347 2.41158 36.6728 0.526631Z" fill="#E31E24"/>
<path fill-rule="evenodd" clip-rule="evenodd" d="M45.5152 39.8392C53.0638 38.6984 58.305 31.7901 57.4262 24.2804C55.8674 30.1711 50.9399 34.8734 44.5194 35.8437C38.8363 36.7025 33.4028 34.423 29.985 30.3053C32.0914 36.7293 38.5962 40.8848 45.5152 39.8392Z" fill="#E31E24"/>
</g>
<defs>
<clipPath id="clip0_2_11">
<rect width="205.106" height="40" fill="white"/>
</clipPath>
</defs>
</svg>
