<svg width="206" height="40" viewBox="0 0 206 40" fill="none" xmlns="http://www.w3.org/2000/svg">
<g clip-path="url(#clip0_8_205)">
<path d="M73.9427 32.9505H83.7933C91.7317 32.9505 97.2165 27.4411 97.2165 20.3472C97.2165 13.1812 91.7317 7.74373 83.7933 7.74373H73.9427V32.9505ZM79.4995 27.9452V12.7492H83.7933C88.3401 12.7492 91.4069 15.882 91.4069 20.3472C91.4069 24.8843 88.3401 27.9452 83.7933 27.9452H79.4995ZM102.16 32.9505H107.717V24.8843H112.011L117.495 32.9505H123.99L117.82 23.9482C121.031 22.7599 123.233 20.2033 123.233 16.1341C123.233 13.6855 122.475 11.705 121.068 10.3006C119.408 8.64411 116.918 7.74373 113.707 7.74373H102.16V32.9505ZM107.717 19.9872V12.7492H113.237C115.944 12.7492 117.604 13.9735 117.604 16.3501C117.604 18.5467 116.052 19.9872 113.346 19.9872H107.717ZM138.785 33.3465C145.568 33.3465 149.862 29.6016 149.862 21.9675V7.74373H144.305V22.1836C144.305 26.1806 142.249 28.2332 138.857 28.2332C135.465 28.2332 133.408 26.1086 133.408 22.0036V7.74373H127.851V22.1477C127.851 29.5655 132.001 33.3465 138.785 33.3465ZM155.527 32.9505H160.976V16.6023L168.012 27.2609H168.157L175.265 16.4942V32.9505H180.786V7.74373H174.796L168.157 18.4026L161.517 7.74373H155.527V32.9505ZM195.833 33.3106C201.281 33.3106 205.106 30.502 205.106 25.4966C205.106 21.0314 202.22 19.195 197.096 17.8625C192.73 16.7462 191.647 16.206 191.647 14.5497C191.647 13.2534 192.766 12.2812 194.895 12.2812C197.024 12.2812 199.225 13.2173 201.462 14.7657L204.349 10.5886C201.787 8.53609 198.647 7.38379 194.967 7.38379C189.807 7.38379 186.126 10.4086 186.126 14.9818C186.126 20.0592 189.41 21.4635 194.498 22.7599C198.72 23.8401 199.585 24.5602 199.585 25.9645C199.585 27.5131 198.214 28.4133 195.941 28.4133C193.054 28.4133 190.673 27.2251 188.4 25.3525L185.116 29.2775C188.147 31.9783 192.008 33.3106 195.833 33.3106Z" fill="#040404"/>
<path d="M13.2789 33.3825C17.8977 33.3825 21.4699 31.5821 24.0679 29.3855V18.4386H13.0985V23.228H18.6914V26.8287C17.2842 27.837 15.48 28.3411 13.4595 28.3411C8.98499 28.3411 5.80968 24.9563 5.80968 20.3471C5.80968 15.9899 9.02093 12.425 13.0623 12.425C15.9851 12.425 17.7171 13.3613 19.6656 14.9817L23.1657 10.7686C20.5318 8.53598 17.7894 7.31152 13.2429 7.31152C5.59309 7.31152 9.15527e-05 13.1811 9.15527e-05 20.3471C9.15527e-05 27.8731 5.41274 33.3825 13.2789 33.3825Z" fill="#E31E24"/>
<path d="M42.2383 33.3825C50.0325 33.3825 55.6975 27.513 55.6975 20.3471C55.6975 13.1092 50.1046 7.31152 42.3106 7.31152C34.5164 7.31152 28.8512 13.1811 28.8512 20.3471C28.8512 27.5849 34.4443 33.3825 42.2383 33.3825ZM42.3106 28.2691C37.8362 28.2691 34.6608 24.6681 34.6608 20.3471C34.6608 15.954 37.7639 12.425 42.2383 12.425C46.7127 12.425 49.8881 16.026 49.8881 20.3471C49.8881 24.7403 46.7848 28.2691 42.3106 28.2691Z" fill="#E31E24"/>
<path d="M61.1297 30.2137C61.1297 31.9421 62.5369 33.3464 64.2692 33.3464C66.0011 33.3464 67.3722 31.9421 67.3722 30.2137C67.3722 28.4491 66.0011 27.0809 64.2692 27.0809C62.5369 27.0809 61.1297 28.4491 61.1297 30.2137ZM66.2176 24.5601L67.3722 7.74365H61.1659L62.2845 24.5601H66.2176Z" fill="#E31E24"/>
<path fill-rule="evenodd" clip-rule="evenodd" d="M36.6728 0.526539C44.0242 -1.52994 51.6475 2.61783 53.9395 9.82435C50.0922 5.09364 43.6634 2.82829 37.4108 4.57746C31.8761 6.12567 27.8618 10.4325 26.442 15.5883C25.7163 8.86796 29.9347 2.41148 36.6728 0.526539Z" fill="#E31E24"/>
<path fill-rule="evenodd" clip-rule="evenodd" d="M45.5152 39.8391C53.0638 38.6983 58.305 31.79 57.4262 24.2803C55.8674 30.171 50.9399 34.8732 44.5194 35.8435C38.8363 36.7024 33.4028 34.4229 29.985 30.3052C32.0914 36.7292 38.5962 40.8846 45.5152 39.8391Z" fill="#E31E24"/>
</g>
<defs>
<clipPath id="clip0_8_205">
<rect width="205.106" height="40" fill="white"/>
</clipPath>
</defs>
</svg>
