<svg width="217" height="64" viewBox="0 0 217 64" fill="none" xmlns="http://www.w3.org/2000/svg">
<g clip-path="url(#clip0_26_9)">
<path d="M4.16858 63.8502H1.00497V63.4884C1.33837 63.3389 1.68028 63.2391 2.03018 63.189V55.7937C1.86344 55.752 1.6927 55.7063 1.51753 55.6563C1.34236 55.6065 1.17163 55.5481 1.00488 55.4816V55.1202H4.16849V55.4816C4.0351 55.548 3.89363 55.6065 3.74338 55.6563C3.59323 55.7063 3.42249 55.752 3.23074 55.7937V61.2063L3.09299 62.1415L3.69309 61.1563L7.35729 56.093V55.7937C7.16562 55.752 6.98424 55.7042 6.81342 55.6501C6.64233 55.596 6.48623 55.5402 6.34441 55.4817V55.1203H9.52088V55.4817C9.37063 55.5481 9.20797 55.6066 9.03315 55.6564C8.85798 55.7064 8.67891 55.7521 8.49532 55.7938V63.1891C8.88699 63.2557 9.22881 63.3554 9.52088 63.4885V63.8502H6.34441V63.4885C6.4778 63.4303 6.62362 63.3741 6.78193 63.3203C6.94052 63.2662 7.11125 63.2224 7.29485 63.1891V57.7889L7.41982 56.8538L6.86948 57.7889L3.15543 62.9147V63.1891C3.3471 63.2224 3.52848 63.2641 3.69957 63.3138C3.87039 63.3638 4.02685 63.4219 4.16831 63.4885V63.8502L4.16858 63.8502ZM16.3859 63.8502H12.8721V63.4884C13.0554 63.4219 13.241 63.3637 13.4286 63.3137C13.6159 63.264 13.8182 63.2223 14.035 63.189V55.7685H12.1216L11.4588 57.552H11.1463C11.1214 57.3857 11.1005 57.1965 11.0837 56.9845C11.0672 56.7725 11.0525 56.5562 11.0401 56.3359C11.0276 56.1156 11.017 55.8996 11.0089 55.6876C11.0005 55.4753 10.9961 55.2864 10.9961 55.1202H18.2617C18.2617 55.2864 18.2576 55.4735 18.2492 55.6814C18.241 55.889 18.2305 56.1032 18.2181 56.3234C18.2056 56.5439 18.1932 56.76 18.1806 56.9721C18.1679 57.184 18.1492 57.3773 18.1242 57.552H17.7992L17.1489 55.7685H15.2355V63.189C15.4524 63.2307 15.6547 63.2724 15.8419 63.3137C16.0295 63.3553 16.2109 63.4135 16.386 63.4884V63.8502H16.3859ZM20.5126 63.8502H17.7363V63.4884C18.0364 63.3553 18.3365 63.2557 18.6366 63.189L21.8005 54.9703H22.1633L25.3269 63.189C25.4936 63.2223 25.6585 63.2599 25.8208 63.3012C25.9835 63.3429 26.1356 63.4053 26.2774 63.4883V63.8501H23.076V63.4883C23.2427 63.4218 23.4138 63.3637 23.5887 63.3136C23.7638 63.2639 23.935 63.2222 24.1016 63.189L23.2513 60.9069H20.2625L19.4373 63.189C19.7872 63.239 20.1459 63.3387 20.5128 63.4883V63.8501L20.5126 63.8502ZM20.5126 60.2584H23.0387L22.0508 57.6142L21.813 56.5417H21.7882L21.4756 57.6394L20.5127 60.2584H20.5126ZM29.4157 55.8558C28.8987 55.7728 28.4737 55.6478 28.1402 55.4816V55.1202H34.7181V55.4816C34.426 55.6314 34.0845 55.7352 33.6925 55.7936V63.189C34.0845 63.2555 34.426 63.3552 34.7181 63.4883V63.8501H31.5416V63.4883C31.6918 63.4218 31.8457 63.3659 32.0044 63.3201C32.1626 63.2741 32.3253 63.2306 32.4921 63.189V55.7684H30.1537C30.1203 57.074 30.0598 58.1567 29.9723 59.0173C29.8846 59.8779 29.774 60.5887 29.6406 61.1499C29.5072 61.7112 29.3552 62.1581 29.1844 62.4906C29.0133 62.8232 28.8279 63.1185 28.6279 63.376C28.4612 63.5924 28.2568 63.7502 28.0152 63.85C27.7735 63.9497 27.54 63.9997 27.3147 63.9997C27.2564 63.9332 27.196 63.8396 27.1336 63.7191C27.071 63.5985 27.0127 63.4695 26.9585 63.3324C26.9042 63.1951 26.8603 63.058 26.8269 62.9206C26.7936 62.7836 26.7727 62.6608 26.7647 62.553L26.9522 62.241L28.3901 62.503C28.5153 62.295 28.6381 62.0207 28.759 61.68C28.8799 61.3391 28.9883 60.9046 29.0844 60.3767C29.1801 59.8486 29.2592 59.2145 29.3218 58.4745C29.3844 57.7346 29.4156 56.8616 29.4156 55.8556L29.4157 55.8558ZM36.3182 63.8502V63.4884C36.6433 63.3389 36.9852 63.2391 37.3435 63.189V55.7937C37.1768 55.7604 37.006 55.7166 36.8308 55.6625C36.6557 55.6084 36.4849 55.5481 36.3181 55.4816V55.1202H39.6441V55.4816C39.4946 55.548 39.3257 55.6084 39.138 55.6625C38.9505 55.7166 38.7525 55.7604 38.5441 55.7937V58.6494C38.6939 58.633 38.8775 58.6143 39.094 58.5935C39.311 58.5727 39.5027 58.5621 39.669 58.5621C40.086 58.5621 40.4902 58.5997 40.8822 58.6743C41.2739 58.7492 41.6198 58.8822 41.9202 59.0736C42.2203 59.2647 42.4618 59.5267 42.6453 59.8593C42.8289 60.1919 42.9205 60.6157 42.9205 61.1313C42.9205 61.6217 42.8245 62.0398 42.6328 62.3847C42.4412 62.7297 42.1869 63.0143 41.8701 63.239C41.5532 63.4634 41.1885 63.6275 40.7759 63.7316C40.363 63.8354 39.9357 63.8873 39.4945 63.8873C39.4527 63.8873 39.3714 63.8854 39.2505 63.8811C39.1296 63.877 38.9921 63.873 38.8379 63.8686C38.6837 63.8646 38.5232 63.8602 38.3565 63.8562C38.1897 63.8521 38.0439 63.85 37.9187 63.85H36.3181L36.3182 63.8502ZM39.4071 59.2107C39.1986 59.2107 39.0319 59.2129 38.9066 59.2169C38.7817 59.221 38.6608 59.2398 38.5442 59.2732V63.189C38.5857 63.2059 38.6461 63.2161 38.7256 63.2201C38.8047 63.2245 38.8901 63.2285 38.9818 63.2329C39.0735 63.2369 39.161 63.2391 39.2446 63.2391C39.3278 63.2391 39.3904 63.2391 39.4321 63.2391C39.7235 63.2391 39.9986 63.1974 40.257 63.1142C40.5156 63.0312 40.7428 62.9044 40.9384 62.7338C41.1344 62.5634 41.2909 62.3452 41.4075 62.0792C41.5243 61.8131 41.5827 61.493 41.5827 61.1189C41.5827 60.4454 41.3888 59.959 41.0011 59.6597C40.6134 59.3605 40.0821 59.2107 39.4072 59.2107H39.4071ZM51.8741 55.1202V55.4816C51.7491 55.5401 51.6033 55.5959 51.4366 55.65C51.2699 55.7042 51.0739 55.752 50.8489 55.7936V63.189C51.2655 63.2472 51.6074 63.3468 51.8741 63.4883V63.8501H48.5603V63.4883C48.8688 63.3388 49.2315 63.239 49.6482 63.189V60.1834H48.3852C48.2019 60.4826 48.0371 60.7778 47.8913 61.0687C47.7455 61.3599 47.5974 61.6468 47.4476 61.9293C47.2974 62.2121 47.1391 62.4865 46.9723 62.7526C46.8056 63.0187 46.6137 63.2802 46.3971 63.5383L45.9717 63.85H44.396V63.5383L44.9962 63.2389C45.263 62.9561 45.5007 62.6777 45.7092 62.4032C45.9178 62.1288 46.1093 61.8628 46.2845 61.6051C46.4593 61.3471 46.6283 61.0935 46.791 60.8443C46.9536 60.5947 47.1181 60.3495 47.2849 60.1084C47.043 60.0338 46.8097 59.9296 46.5847 59.7967C46.3593 59.6636 46.1636 59.4973 45.9969 59.2979C45.8301 59.0983 45.6967 58.8634 45.5968 58.5933C45.4967 58.3229 45.4466 58.0133 45.4466 57.664C45.4466 57.2069 45.5467 56.8141 45.7468 56.4856C45.9468 56.1571 46.2095 55.8889 46.5345 55.6813C46.8599 55.4734 47.2285 55.3214 47.6414 55.226C48.054 55.1303 48.4729 55.0825 48.8982 55.0825C49.0649 55.0825 49.2712 55.0887 49.5171 55.1014C49.763 55.1139 50.0151 55.1202 50.2738 55.1202H51.8742H51.8741ZM48.7852 59.6346C48.9354 59.6346 49.0897 59.6284 49.248 59.6159C49.4066 59.6035 49.54 59.5808 49.6481 59.5473V55.7937C49.5649 55.7686 49.4462 55.752 49.2919 55.7436C49.1377 55.7352 49.0022 55.7311 48.8853 55.7311C48.2437 55.7311 47.7329 55.8827 47.3536 56.1865C46.974 56.4898 46.7846 56.9824 46.7846 57.6642C46.7846 58.2877 46.9492 58.7722 47.2785 59.1172C47.6079 59.4622 48.11 59.6346 48.7852 59.6346ZM56.6382 63.8502H53.4746V63.4884C53.808 63.3553 54.1499 63.2557 54.4998 63.189V55.7937C54.1082 55.7352 53.7663 55.6314 53.4746 55.4817V55.1203H56.6382V55.4817C56.4967 55.5565 56.3465 55.6191 56.1882 55.6687C56.0296 55.7188 55.8673 55.7604 55.7006 55.7937V59.0485H59.627V55.7937C59.4519 55.752 59.2873 55.7063 59.1331 55.6563C58.9789 55.6065 58.8307 55.5481 58.6894 55.4816V55.1202H61.853V55.4816C61.7032 55.5648 61.5383 55.6292 61.359 55.6749C61.1799 55.7209 61.0026 55.7603 60.8278 55.7936V63.189C61.0193 63.2222 61.2027 63.2639 61.3778 63.3136C61.5529 63.3637 61.7112 63.4217 61.853 63.4883V63.8501H58.6894V63.4883C58.9895 63.3552 59.302 63.2556 59.627 63.189V59.697H55.7006V63.189C55.8673 63.2222 56.0296 63.2639 56.1882 63.3136C56.3465 63.3637 56.4967 63.4217 56.6382 63.4883V63.8501V63.8502ZM69.9313 61.5804H70.2562C70.298 61.8131 70.3354 62.1063 70.3688 62.4597C70.4021 62.813 70.4105 63.1558 70.3936 63.4884C70.2687 63.5882 70.1185 63.6693 69.9437 63.7317C69.7685 63.7938 69.5832 63.8461 69.3871 63.8874C69.1911 63.9291 68.9911 63.9582 68.7869 63.9748C68.5826 63.9916 68.3887 63.9999 68.2055 63.9999C67.5052 63.9999 66.8798 63.9104 66.3295 63.7317C65.7794 63.5529 65.3146 63.2804 64.9352 62.9147C64.556 62.5489 64.264 62.0811 64.0599 61.5118C63.8558 60.9421 63.7535 60.2667 63.7535 59.4851C63.7535 58.6702 63.8661 57.9781 64.0911 57.4085C64.3164 56.8391 64.6205 56.3735 65.0042 56.0118C65.3875 55.65 65.8337 55.3862 66.3422 55.2199C66.8505 55.0536 67.3843 54.9703 67.9428 54.9703C68.4931 54.9703 68.9558 55.0057 69.3307 55.0762C69.7059 55.1471 70.0353 55.2531 70.3189 55.3945C70.3189 55.5275 70.3145 55.6832 70.3061 55.8619C70.2979 56.041 70.2855 56.2298 70.2687 56.4294C70.2522 56.6289 70.2313 56.8243 70.2061 57.0156C70.1812 57.207 70.1562 57.3813 70.1313 57.5395H69.8059L69.1559 55.7435C69.064 55.6938 68.9119 55.6606 68.6994 55.6437C68.4869 55.6272 68.2762 55.6189 68.0677 55.6189C67.651 55.6189 67.2572 55.6957 66.8861 55.8495C66.5152 56.0033 66.1898 56.2404 65.9107 56.5606C65.6315 56.8807 65.4083 57.2838 65.2416 57.7701C65.0749 58.2565 64.9917 58.828 64.9917 59.485C64.9917 60.0752 65.0664 60.6095 65.2167 61.0874C65.3666 61.5656 65.5834 61.9732 65.8671 62.3097C66.1503 62.6466 66.4963 62.9042 66.9048 63.0829C67.3133 63.2617 67.7761 63.3511 68.293 63.3511C68.5682 63.3511 68.7973 63.3303 68.9808 63.2886C69.1641 63.2471 69.285 63.1932 69.3435 63.1268L69.9313 61.5803V61.5804ZM76.7961 55.1202H79.5599V55.4816C79.3932 55.5564 79.2305 55.619 79.0723 55.6686C78.9136 55.7187 78.7597 55.7603 78.6095 55.7936L76.0958 59.1109C76.3043 59.3853 76.544 59.693 76.8148 60.0339C77.0858 60.3745 77.3694 60.726 77.6652 61.0874C77.9612 61.4492 78.2653 61.8149 78.5783 62.1851C78.8907 62.5549 79.1972 62.9063 79.4972 63.2389L80.0974 63.5383V63.85H78.5343L78.1092 63.5506C77.6172 62.9769 77.1276 62.3575 76.6399 61.6924C76.1522 61.027 75.6788 60.3539 75.2205 59.6719H74.6078V63.1888C74.9911 63.2553 75.304 63.3551 75.5455 63.4881V63.8499H72.3819V63.4881C72.7153 63.3551 73.0572 63.2554 73.4071 63.1888V55.7934C73.0319 55.7433 72.6903 55.6396 72.3819 55.4814V55.12H75.5455V55.4814C75.4121 55.5399 75.2663 55.5957 75.108 55.6498C74.9497 55.704 74.783 55.7518 74.6078 55.7934V59.2478L75.358 59.0735L77.6967 55.7934C77.53 55.7517 77.3713 55.706 77.2215 55.656C77.0714 55.6062 76.9295 55.5479 76.7961 55.4813V55.1199V55.1202ZM84.4988 63.8502H81.3352V63.4884C81.6686 63.3389 82.0105 63.2391 82.3604 63.189V55.7937C82.1938 55.752 82.0229 55.7063 81.8478 55.6563C81.6726 55.6065 81.5019 55.5481 81.3351 55.4816V55.1202H84.4987V55.4816C84.3653 55.548 84.224 55.6065 84.0736 55.6563C83.9235 55.7063 83.7527 55.752 83.561 55.7937V61.2063L83.4232 62.1415L84.0234 61.1563L87.6875 56.093V55.7937C87.4959 55.752 87.3145 55.7042 87.1437 55.6501C86.9726 55.596 86.8165 55.5402 86.6747 55.4817V55.1203H89.8511V55.4817C89.701 55.5481 89.5383 55.6066 89.3634 55.6564C89.1882 55.7064 89.0092 55.7521 88.8256 55.7938V63.1891C89.2172 63.2557 89.5591 63.3554 89.8511 63.4885V63.8502H86.6747V63.4885C86.8081 63.4303 86.9539 63.3741 87.1122 63.3203C87.2708 63.2662 87.4416 63.2224 87.6252 63.1891V57.7889L87.7501 56.8538L87.1997 57.7889L83.4858 62.9147V63.1891C83.6773 63.2224 83.8587 63.2641 84.0298 63.3138C84.2006 63.3638 84.3571 63.4219 84.4986 63.4885V63.8502L84.4988 63.8502ZM94.6152 63.8502H91.4516V63.4884C91.785 63.3389 92.1269 63.2391 92.4768 63.189V55.7937C92.3101 55.752 92.1393 55.7063 91.9642 55.6563C91.789 55.6065 91.6182 55.5481 91.4515 55.4816V55.1202H94.6151V55.4816C94.4817 55.548 94.3403 55.6065 94.19 55.6563C94.0398 55.7063 93.869 55.752 93.6774 55.7937V61.2063L93.5396 62.1415L94.1397 61.1563L97.8039 56.093V55.7937C97.6122 55.752 97.4309 55.7042 97.26 55.6501C97.089 55.596 96.9329 55.5402 96.791 55.4817V55.1203H99.9675V55.4817C99.8173 55.5481 99.6546 55.6066 99.4798 55.6564C99.3046 55.7064 99.1255 55.7521 98.9419 55.7938V63.1891C99.3336 63.2557 99.6754 63.3554 99.9675 63.4885V63.8502H96.791V63.4885C96.9244 63.4303 97.0702 63.3741 97.2286 63.3203C97.3871 63.2662 97.5579 63.2224 97.7415 63.1891V57.7889L97.8664 56.8538L97.3161 57.7889L93.6021 62.9147V63.1891C93.7937 63.2224 93.9751 63.2641 94.1462 63.3138C94.317 63.3638 94.4734 63.4219 94.6149 63.4885V63.8502L94.6152 63.8502ZM95.7782 54.7211C95.0113 54.7211 94.4507 54.5692 94.0964 54.2658C93.7421 53.9621 93.5651 53.5861 93.5651 53.137C93.6567 53.0457 93.7922 52.9792 93.9714 52.9376C94.1506 52.8959 94.3276 52.8711 94.5027 52.8627L94.8153 53.0249V54.085C94.9321 54.1431 95.0758 54.187 95.2468 54.2158C95.4176 54.245 95.5989 54.2597 95.7909 54.2597C95.9325 54.2597 96.1013 54.2472 96.2974 54.2221C96.493 54.1973 96.6495 54.1639 96.7664 54.1222V53.0249L97.0789 52.8627C97.2039 52.8546 97.3559 52.8773 97.5352 52.9313C97.7147 52.9854 97.8583 53.0541 97.9668 53.137C97.9668 53.3618 97.925 53.5693 97.8418 53.7608C97.7582 53.952 97.6289 54.1183 97.454 54.2597C97.2788 54.4011 97.0539 54.5133 96.7787 54.5963C96.5036 54.6796 96.1701 54.7212 95.7781 54.7212L95.7782 54.7211ZM105.958 63.189C106.183 63.2139 106.395 63.2534 106.595 63.3075C106.795 63.3615 106.983 63.4218 107.158 63.4884V63.8502H103.731V63.4884C103.898 63.4054 104.069 63.343 104.244 63.3013C104.419 63.26 104.59 63.2224 104.757 63.1891V55.7938C104.565 55.7605 104.386 55.7167 104.219 55.6626C104.052 55.6085 103.89 55.5482 103.732 55.4817V55.1203H104.857C105.19 55.1203 105.553 55.1034 105.945 55.0702C106.337 55.0369 106.712 55.0204 107.07 55.0204C107.479 55.0204 107.879 55.0639 108.271 55.1513C108.663 55.2386 109.011 55.3863 109.315 55.5941C109.62 55.8017 109.866 56.0783 110.053 56.4234C110.241 56.7683 110.334 57.1988 110.334 57.7143C110.334 58.2047 110.238 58.6246 110.047 58.9739C109.855 59.3229 109.599 59.6098 109.278 59.8342C108.957 60.0589 108.592 60.223 108.184 60.327C107.775 60.4308 107.354 60.4827 106.921 60.4827C106.879 60.4827 106.814 60.4827 106.727 60.4827C106.639 60.4827 106.545 60.4806 106.445 60.4765C106.345 60.4724 106.249 60.4663 106.158 60.4579C106.066 60.4495 105.999 60.441 105.958 60.433V63.189H105.958ZM106.808 55.6687C106.608 55.6687 106.445 55.6731 106.32 55.6815C106.195 55.6896 106.074 55.7063 105.958 55.7312V59.7721C105.999 59.7885 106.059 59.799 106.139 59.8031C106.218 59.8075 106.301 59.8136 106.389 59.8218C106.476 59.8302 106.562 59.8343 106.645 59.8343C106.729 59.8343 106.795 59.8343 106.845 59.8343C107.137 59.8343 107.412 59.7948 107.671 59.7158C107.929 59.6369 108.156 59.5101 108.352 59.3354C108.548 59.1608 108.704 58.9408 108.821 58.6744C108.938 58.4083 108.996 58.0882 108.996 57.7143C108.996 57.0325 108.802 56.5212 108.415 56.1802C108.027 55.8392 107.491 55.6686 106.808 55.6686L106.808 55.6687ZM117.987 55.1202C117.979 55.4527 117.964 55.7874 117.943 56.124C117.923 56.4609 117.891 56.7997 117.849 57.1405H117.524L117.012 55.7684H114.286V59.0735H116.324L116.812 58.1505H117.124C117.174 58.9738 117.174 59.8135 117.124 60.6698H116.812L116.324 59.7219H114.286V63.2014H117.162L117.775 61.7051H118.087C118.145 62.054 118.187 62.4075 118.212 62.7651C118.237 63.1225 118.241 63.4842 118.225 63.8502H112.06V63.4884C112.351 63.3553 112.693 63.2557 113.085 63.189V55.7937C112.918 55.7604 112.747 55.7166 112.572 55.6625C112.397 55.6084 112.226 55.5481 112.06 55.4816V55.1202H117.987H117.987ZM126.691 61.5804H127.016C127.057 61.8131 127.095 62.1063 127.128 62.4597C127.161 62.813 127.17 63.1558 127.153 63.4884C127.028 63.5882 126.878 63.6693 126.703 63.7317C126.528 63.7938 126.342 63.8461 126.146 63.8874C125.951 63.9291 125.75 63.9582 125.546 63.9748C125.342 63.9916 125.148 63.9999 124.965 63.9999C124.265 63.9999 123.639 63.9104 123.089 63.7317C122.539 63.5529 122.074 63.2804 121.695 62.9147C121.315 62.5489 121.023 62.0811 120.819 61.5118C120.615 60.9421 120.513 60.2667 120.513 59.4851C120.513 58.6702 120.625 57.9781 120.85 57.4085C121.076 56.8391 121.38 56.3735 121.763 56.0118C122.147 55.65 122.593 55.3862 123.102 55.2199C123.61 55.0536 124.144 54.9703 124.702 54.9703C125.252 54.9703 125.715 55.0057 126.09 55.0762C126.465 55.1471 126.795 55.2531 127.078 55.3945C127.078 55.5275 127.074 55.6832 127.065 55.8619C127.057 56.041 127.045 56.2298 127.028 56.4294C127.011 56.6289 126.991 56.8243 126.965 57.0156C126.941 57.207 126.916 57.3813 126.891 57.5395H126.565L125.915 55.7435C125.823 55.6938 125.671 55.6606 125.459 55.6437C125.246 55.6272 125.036 55.6189 124.827 55.6189C124.41 55.6189 124.017 55.6957 123.645 55.8495C123.275 56.0033 122.949 56.2404 122.67 56.5606C122.391 56.8807 122.168 57.2838 122.001 57.7701C121.834 58.2565 121.751 58.828 121.751 59.485C121.751 60.0752 121.826 60.6095 121.976 61.0874C122.126 61.5656 122.343 61.9732 122.626 62.3097C122.91 62.6466 123.256 62.9042 123.664 63.0829C124.073 63.2617 124.535 63.3511 125.052 63.3511C125.328 63.3511 125.557 63.3303 125.74 63.2886C125.923 63.2471 126.044 63.1932 126.103 63.1268L126.691 61.5803V61.5804ZM134.231 63.8502H130.717V63.4884C130.9 63.4219 131.086 63.3637 131.273 63.3137C131.461 63.264 131.663 63.2223 131.88 63.189V55.7685H129.966L129.304 57.552H128.991C128.966 57.3857 128.945 57.1965 128.928 56.9845C128.912 56.7725 128.897 56.5562 128.885 56.3359C128.872 56.1156 128.862 55.8996 128.854 55.6876C128.845 55.4753 128.841 55.2864 128.841 55.1202H136.106C136.106 55.2864 136.102 55.4735 136.094 55.6814C136.086 55.889 136.075 56.1032 136.063 56.3234C136.05 56.5439 136.038 56.76 136.025 56.9721C136.013 57.184 135.994 57.3773 135.969 57.552H135.644L134.994 55.7685H133.08V63.189C133.297 63.2307 133.499 63.2724 133.687 63.3137C133.874 63.3553 134.056 63.4135 134.231 63.4884V63.8502H134.231ZM137.832 59.4852C137.832 58.8366 137.922 58.2358 138.101 57.683C138.28 57.13 138.539 56.652 138.876 56.2487C139.214 55.8456 139.629 55.5318 140.12 55.3073C140.612 55.0826 141.171 54.9703 141.796 54.9703C142.421 54.9703 142.98 55.0826 143.472 55.3073C143.964 55.5318 144.378 55.8456 144.716 56.2487C145.054 56.652 145.312 57.13 145.492 57.683C145.671 58.2359 145.76 58.8366 145.76 59.4852C145.76 60.1338 145.671 60.7343 145.492 61.2871C145.312 61.8403 145.054 62.3183 144.716 62.7214C144.378 63.1247 143.964 63.4387 143.472 63.6631C142.98 63.8875 142.421 64 141.796 64C141.171 64 140.612 63.8875 140.12 63.6631C139.629 63.4387 139.214 63.1247 138.876 62.7214C138.539 62.3183 138.28 61.8404 138.101 61.2871C137.921 60.7342 137.832 60.1338 137.832 59.4852ZM139.17 59.4852C139.17 60.0173 139.226 60.5183 139.339 60.9878C139.452 61.4577 139.62 61.867 139.846 62.2163C140.071 62.5656 140.354 62.842 140.696 63.0458C141.038 63.2494 141.442 63.3514 141.909 63.3514C142.334 63.3514 142.705 63.2494 143.022 63.0458C143.339 62.842 143.599 62.5657 143.803 62.2163C144.008 61.867 144.162 61.4577 144.266 60.9878C144.37 60.5182 144.422 60.0173 144.422 59.4852C144.422 58.9531 144.368 58.4521 144.26 57.9822C144.151 57.5126 143.985 57.103 143.76 56.754C143.534 56.4047 143.251 56.1281 142.909 55.9245C142.567 55.721 142.163 55.619 141.696 55.619C141.238 55.619 140.848 55.721 140.527 55.9245C140.206 56.1281 139.946 56.4046 139.745 56.754C139.545 57.103 139.399 57.5126 139.308 57.9822C139.216 58.4522 139.17 58.9531 139.17 59.4852ZM149.887 63.1891C150.112 63.214 150.324 63.2534 150.524 63.3076C150.724 63.3616 150.912 63.4219 151.087 63.4885V63.8502H147.661V63.4885C147.827 63.4055 147.998 63.343 148.173 63.3014C148.348 63.2601 148.519 63.2225 148.686 63.1892V55.7938C148.494 55.7606 148.315 55.7168 148.148 55.6627C147.982 55.6085 147.819 55.5483 147.661 55.4818V55.1204H148.786C149.12 55.1204 149.482 55.1035 149.874 55.0703C150.266 55.037 150.641 55.0205 151 55.0205C151.408 55.0205 151.808 55.064 152.2 55.1514C152.592 55.2387 152.94 55.3863 153.244 55.5942C153.549 55.8018 153.795 56.0784 153.982 56.4235C154.17 56.7684 154.264 57.1989 154.264 57.7144C154.264 58.2048 154.168 58.6247 153.976 58.9739C153.784 59.323 153.528 59.6098 153.207 59.8343C152.886 60.059 152.521 60.2231 152.113 60.3271C151.704 60.4309 151.283 60.4828 150.85 60.4828C150.808 60.4828 150.744 60.4828 150.656 60.4828C150.568 60.4828 150.475 60.4807 150.375 60.4766C150.275 60.4725 150.179 60.4663 150.087 60.4579C149.995 60.4495 149.928 60.4411 149.887 60.4331V63.1891H149.887ZM150.737 55.6688C150.537 55.6688 150.374 55.6732 150.249 55.6816C150.124 55.6897 150.003 55.7064 149.887 55.7313V59.7722C149.928 59.7886 149.989 59.7991 150.068 59.8032C150.147 59.8075 150.23 59.8137 150.318 59.8219C150.406 59.8303 150.491 59.8343 150.575 59.8343C150.658 59.8343 150.724 59.8343 150.775 59.8343C151.066 59.8343 151.341 59.7949 151.6 59.7159C151.859 59.637 152.086 59.5102 152.281 59.3355C152.477 59.1609 152.634 58.9409 152.75 58.6744C152.867 58.4084 152.926 58.0883 152.926 57.7144C152.926 57.0326 152.732 56.5213 152.344 56.1803C151.956 55.8393 151.421 55.6687 150.737 55.6687L150.737 55.6688ZM157.365 63.8502H154.588V63.4885C154.888 63.3554 155.188 63.2557 155.489 63.1891L158.653 54.9704H159.015L162.179 63.1891C162.346 63.2224 162.51 63.26 162.673 63.3013C162.836 63.343 162.988 63.4054 163.129 63.4884V63.8502H159.928V63.4884C160.095 63.4219 160.266 63.3637 160.441 63.3137C160.616 63.264 160.787 63.2223 160.954 63.189L160.103 60.907H157.115L156.289 63.189C156.639 63.2391 156.998 63.3388 157.365 63.4884V63.8502L157.365 63.8502ZM157.365 60.2585H159.891L158.903 57.6143L158.665 56.5418H158.64L158.328 57.6395L157.365 60.2585H157.365ZM167.531 63.8502H164.367V63.4885C164.701 63.3554 165.042 63.2557 165.392 63.1891V55.7938C165.001 55.7353 164.659 55.6315 164.367 55.4818V55.1204H167.531V55.4818C167.389 55.5566 167.239 55.6192 167.081 55.6688C166.922 55.7188 166.76 55.7605 166.593 55.7938V59.0486H170.52V55.7938C170.344 55.7521 170.18 55.7064 170.026 55.6564C169.871 55.6066 169.723 55.5482 169.582 55.4817V55.1203H172.746V55.4817C172.596 55.5649 172.431 55.6292 172.252 55.675C172.072 55.721 171.895 55.7604 171.72 55.7937V63.189C171.912 63.2223 172.095 63.264 172.27 63.3137C172.446 63.3637 172.604 63.4218 172.746 63.4884V63.8502H169.582V63.4884C169.882 63.3553 170.195 63.2557 170.52 63.189V59.6971H166.593V63.189C166.76 63.2223 166.922 63.264 167.081 63.3137C167.239 63.3637 167.389 63.4218 167.531 63.4884V63.8502V63.8502ZM182.987 61.5805H183.313C183.354 61.8132 183.392 62.1064 183.425 62.4597C183.458 62.8131 183.467 63.1559 183.45 63.4885C183.325 63.5882 183.175 63.6694 183 63.7318C182.825 63.7939 182.639 63.8462 182.443 63.8875C182.247 63.9291 182.047 63.9583 181.843 63.9749C181.639 63.9917 181.445 64 181.262 64C180.562 64 179.936 63.9105 179.386 63.7318C178.836 63.553 178.371 63.2805 177.992 62.9147C177.612 62.549 177.32 62.0812 177.116 61.5119C176.912 60.9422 176.81 60.2668 176.81 59.4852C176.81 58.6703 176.922 57.9782 177.147 57.4086C177.373 56.8392 177.677 56.3736 178.06 56.0119C178.444 55.6501 178.89 55.3863 179.398 55.22C179.907 55.0537 180.441 54.9703 180.999 54.9703C181.549 54.9703 182.012 55.0058 182.387 55.0763C182.762 55.1472 183.092 55.2532 183.375 55.3946C183.375 55.5276 183.371 55.6833 183.362 55.862C183.354 56.0411 183.342 56.2299 183.325 56.4295C183.308 56.629 183.288 56.8244 183.262 57.0157C183.237 57.2071 183.212 57.3814 183.188 57.5396H182.862L182.212 55.7436C182.12 55.6939 181.968 55.6606 181.756 55.6438C181.543 55.6273 181.332 55.619 181.124 55.619C180.707 55.619 180.313 55.6958 179.942 55.8496C179.571 56.0034 179.246 56.2405 178.967 56.5607C178.688 56.8808 178.465 57.2839 178.298 57.7702C178.131 58.2566 178.048 58.8281 178.048 59.4851C178.048 60.0753 178.123 60.6095 178.273 61.0875C178.423 61.5657 178.64 61.9732 178.923 62.3098C179.207 62.6467 179.552 62.9043 179.961 63.083C180.37 63.2618 180.832 63.3512 181.349 63.3512C181.624 63.3512 181.854 63.3304 182.037 63.2887C182.22 63.2472 182.341 63.1933 182.4 63.1269L182.987 61.5804V61.5805ZM188.902 57.552H188.59C188.498 57.3109 188.404 57.0281 188.308 56.704C188.212 56.3799 188.131 56.0721 188.065 55.7813C188.356 55.5318 188.706 55.3344 189.115 55.1886C189.523 55.0431 189.965 54.9703 190.44 54.9703C190.857 54.9703 191.216 55.0285 191.516 55.145C191.816 55.2613 192.064 55.4194 192.26 55.619C192.456 55.8185 192.6 56.0491 192.691 56.311C192.783 56.5731 192.829 56.8453 192.829 57.1278C192.829 57.5937 192.721 58.0717 192.504 58.5621C192.287 59.0528 192.018 59.5286 191.697 59.9901C191.376 60.4517 191.028 60.8861 190.653 61.2936C190.278 61.7007 189.932 62.0583 189.615 62.3661L189.09 62.8525V62.9022L189.79 62.8274H191.941L192.554 61.4307H192.867C192.883 61.6138 192.9 61.8132 192.917 62.0291C192.933 62.2455 192.948 62.4636 192.96 62.684C192.973 62.9044 192.983 63.1162 192.991 63.3201C193 63.5237 193.004 63.7002 193.004 63.8501H187.839V63.451C188.023 63.2599 188.246 63.0267 188.508 62.7527C188.771 62.4782 189.044 62.1746 189.328 61.8421C189.611 61.5095 189.892 61.1562 190.172 60.7819C190.451 60.4078 190.699 60.0273 190.916 59.6408C191.132 59.2541 191.31 58.8697 191.447 58.4875C191.585 58.1048 191.654 57.739 191.654 57.3897C191.654 57.1486 191.622 56.9201 191.56 56.7039C191.497 56.4879 191.404 56.2987 191.279 56.1364C191.153 55.9745 191.001 55.8477 190.822 55.756C190.643 55.6646 190.436 55.6189 190.203 55.6189C190.028 55.6189 189.874 55.6314 189.74 55.6562C189.607 55.6813 189.461 55.7186 189.302 55.7684L188.902 57.5519L188.902 57.552ZM195.217 59.4852C195.217 57.9885 195.467 56.8618 195.967 56.1054C196.468 55.3486 197.185 54.9703 198.118 54.9703C199.127 54.9703 199.865 55.3424 200.332 56.0867C200.799 56.8308 201.032 57.9635 201.032 59.4852C201.032 60.9816 200.78 62.1082 200.276 62.865C199.771 63.6215 199.027 64 198.043 64C197.535 64 197.101 63.898 196.743 63.6941C196.384 63.4906 196.093 63.1953 195.867 62.8087C195.642 62.4221 195.478 61.9503 195.373 61.3934C195.269 60.8363 195.217 60.2004 195.217 59.4853V59.4852ZM196.418 59.4852C196.418 60.0837 196.447 60.6282 196.505 61.119C196.564 61.6093 196.657 62.0314 196.787 62.3848C196.916 62.7381 197.082 63.0105 197.287 63.2015C197.491 63.3929 197.739 63.4884 198.031 63.4884C198.69 63.4884 199.154 63.1642 199.425 62.5156C199.696 61.867 199.832 60.857 199.832 59.4852C199.832 58.8866 199.807 58.3418 199.756 57.8514C199.707 57.361 199.615 56.9411 199.482 56.5918C199.348 56.2425 199.171 55.9723 198.95 55.7813C198.729 55.5899 198.452 55.4944 198.118 55.4944C197.493 55.4944 197.053 55.8164 196.799 56.461C196.545 57.1052 196.418 58.1134 196.418 59.4852ZM207.635 63.8502H203.983V63.4884C204.192 63.397 204.402 63.3159 204.615 63.2453C204.827 63.1745 205.042 63.1142 205.259 63.0644V56.941L205.309 56.2051C205.075 56.2964 204.834 56.361 204.583 56.3983C204.333 56.4356 204.075 56.4503 203.808 56.4419L203.746 56.1425C204.129 56.0179 204.525 55.8619 204.934 55.6748C205.342 55.4881 205.721 55.253 206.072 54.9702H206.384V63.0642C206.593 63.114 206.801 63.1743 207.009 63.2451C207.218 63.3157 207.426 63.3968 207.635 63.4882V63.85L207.635 63.8502Z" fill="#3C2A22"/>
<path d="M210.298 59.4852C210.298 57.9885 210.548 56.8618 211.048 56.1054C211.548 55.3486 212.265 54.9703 213.199 54.9703C214.208 54.9703 214.946 55.3424 215.413 56.0867C215.879 56.8308 216.113 57.9635 216.113 59.4852C216.113 60.9816 215.861 62.1082 215.356 62.865C214.852 63.6215 214.108 64 213.124 64C212.616 64 212.182 63.898 211.824 63.6941C211.465 63.4906 211.173 63.1953 210.948 62.8087C210.723 62.4221 210.559 61.9503 210.454 61.3934C210.35 60.8363 210.298 60.2004 210.298 59.4853V59.4852ZM211.498 59.4852C211.498 60.0837 211.528 60.6282 211.586 61.119C211.644 61.6093 211.738 62.0314 211.867 62.3848C211.996 62.7381 212.163 63.0105 212.368 63.2015C212.572 63.3929 212.82 63.4884 213.112 63.4884C213.77 63.4884 214.235 63.1642 214.506 62.5156C214.777 61.867 214.912 60.857 214.912 59.4852C214.912 58.8866 214.887 58.3418 214.837 57.8514C214.787 57.361 214.696 56.9411 214.562 56.5918C214.429 56.2425 214.252 55.9723 214.031 55.7813C213.81 55.5899 213.533 55.4944 213.199 55.4944C212.574 55.4944 212.134 55.8164 211.88 56.461C211.626 57.1052 211.498 58.1134 211.498 59.4852Z" fill="#3C2A22"/>
<path fill-rule="evenodd" clip-rule="evenodd" d="M19.4707 1.96916C12.1295 3.90462 10.0723 10.5787 12.0448 13.8215C13.3347 15.9415 17.7669 17.2736 19.5976 13.7535C21.1032 10.8604 16.8633 9.80132 19.1427 7.03536C20.962 4.9045 27.9619 4.59509 30.5833 4.21952C28.7304 6.31517 18.3695 30.1373 11.9399 30.956C8.3713 31.3473 7.79958 25.6148 4.54736 25.2903C0.590924 24.8948 -0.713669 29.3243 0.361208 31.5604C2.00541 34.9804 10.1217 36.9111 15.7601 31.8387C21.9069 26.3092 32.1446 5.92553 34.2427 3.67437C37.0171 3.36576 36.6981 3.39097 39.5557 3.42953C36.5296 11.3909 31.0952 19.5617 28.3517 27.4042C27.5685 29.6432 25.8947 34.3328 29.5247 35.0735C31.4644 35.4693 33.448 34.4404 34.7735 33.1107C37.0489 30.8281 39.8489 27.8136 41.8078 25.2694L41.9992 25.0206C41.6151 26.079 39.282 31.747 38.7932 33.0908C37.4001 36.9206 35.4779 41.6478 35.3955 42.3902C35.2986 43.2625 35.3277 43.9048 35.4827 44.3183C35.7099 44.8834 36.225 45.1658 37.0282 45.1658C37.8983 45.1658 38.4919 45.0463 38.8093 44.8073C39.1268 44.5683 39.3427 44.1932 39.4572 43.6816C39.5718 43.1698 39.7358 42.3738 39.9496 41.2925C40.1636 40.2092 40.3372 39.3817 40.4701 38.8111C40.6031 38.24 40.8894 37.2666 41.3293 35.8889C41.7703 34.5079 42.15 33.4174 42.4682 32.6191C42.9255 32.9519 43.4274 33.2401 43.9734 33.484C44.5193 33.7276 45.0061 33.8495 45.4342 33.8495C46.4651 33.8495 47.5707 33.4769 48.7523 32.7304C50.1718 33.9068 51.8946 33.8567 53.508 33.1773C55.8463 32.3276 57.9915 29.9471 58.6161 27.9675C59.0092 31.868 62.7398 34.6904 67.1126 33.2367C72.4052 31.4764 74.4441 23.2737 71.4864 20.0658C72.9462 20.4964 74.6098 20.4876 76.062 20.0599C78.9792 19.2005 81.0227 19.8827 83.7084 21.035C84.7765 21.4933 86.0243 21.9006 86.9765 20.9572C87.2398 20.6965 87.3538 20.455 87.4527 20.105C88.6564 15.2143 81.1177 15.5575 78.2209 16.3286C76.9624 16.6636 76.0737 17.1761 74.7047 17.4301C72.3057 17.8754 69.8651 17.5249 67.9042 16.0065C67.235 15.7621 66.2715 15.951 66.1096 18.4675C65.9213 21.3839 68.9667 18.1567 68.7131 23.3862C68.7012 23.6292 68.6824 23.8906 68.6556 24.1716C68.4778 26.0612 67.3696 32.3813 64.4117 31.6112C61.1759 30.77 63.7172 23.5878 64.3691 22.5467C65.1542 21.2929 62.5997 18.7688 61.9157 18.8988C59.1383 19.4251 56.6474 29.3368 53.7554 30.778C53.1918 31.0138 51.9618 30.9033 51.8812 30.1932C54.2842 27.7268 56.295 24.1797 56.563 22.0711C56.8567 19.7617 56.7676 18.1715 56.2949 17.3065C55.8213 16.4401 54.8865 16.0065 53.4912 16.0065C52.7592 16.0065 51.7894 16.3603 50.583 17.0673C49.8934 17.4774 49.0327 18.0804 48.0013 18.8763C48.1781 18.3535 48.2923 17.8757 48.3441 17.4431C48.3959 17.0102 48.3541 16.691 48.2185 16.4858C48.0829 16.2804 47.7751 16.1777 47.2947 16.1777C46.5629 16.1777 46.0248 16.2798 45.6541 16.4173C45.1028 16.6219 44.7888 17.0087 44.6337 17.5172C44.1407 18.3659 31.8982 34.3918 32.7473 28.1768C33.2573 24.4444 40.9448 8.69776 44.0805 3.50189C45.6874 3.35559 50.4718 5.36429 52.4219 3.66986C58.7909 -1.86435 26.9963 -0.0154853 19.4707 1.96889V1.96916ZM45.3638 25.8555C46.3619 23.944 47.178 22.6248 47.8105 21.9019C48.8143 20.748 50.0007 20.1702 51.3683 20.1702C51.8013 20.1702 52.0584 20.3968 52.1393 20.8498C52.1769 21.0989 52.1385 21.6871 52.0244 22.6135C51.8742 23.8313 51.1655 25.3445 49.9012 27.1507C48.6409 28.9512 47.5486 29.8494 46.622 29.8494C46.2376 29.8494 45.9157 29.7045 45.6563 29.4144C45.3966 29.1244 45.1549 28.968 44.9313 28.9457C44.6599 28.9457 44.3955 29.0294 44.1383 29.1969C43.8812 29.3642 43.6831 29.5595 43.5439 29.7825C43.6709 29.4704 43.926 28.8843 44.3097 28.0237C44.694 27.1618 45.0454 26.439 45.3637 25.8555H45.3638Z" fill="#3C2A22"/>
<path fill-rule="evenodd" clip-rule="evenodd" d="M135.044 29.2499C134.964 28.4649 135.138 29.1061 135.044 29.2499V29.2499ZM81.9337 25.6259C77.9773 25.2304 76.6727 29.6598 77.7476 31.8959C79.3918 35.316 86.12 37.2467 91.7585 32.1743C97.9053 26.6448 100.384 21.7433 102.482 19.4922C97.3982 39.2314 111.22 34.7109 114.23 29.816C115.02 35.8777 121.195 34.4665 124.581 29.5928C125.803 35.8777 132.385 33.312 135.044 29.2498C135.385 32.6713 140.616 35.3221 144.861 30.618C147.177 35.3043 152.064 33.954 154.422 30.9602C157.596 36.6469 163.898 31.6446 165.047 28.0008C165.441 31.9014 169.171 34.7238 173.544 33.27C178.836 31.5098 180.875 23.3071 177.918 20.0991C177.918 20.0991 180.484 20.8697 182.72 20.0141C182.639 20.44 181.073 27.313 180.509 29.0198C179.979 30.6192 182.805 34.2961 183.833 32.8416C183.833 32.8416 184.477 30.1702 185.402 26.7695C185.49 26.5101 188.593 26.5135 190.523 24.1187C190.079 27.2321 189.018 30.3079 189.494 31.5802C191.102 35.8776 198.659 30.7639 202.785 28.9075C207.158 26.9404 209.377 27.1432 213.675 29.1032C215.203 29.7994 216.619 29.139 216.893 27.9562C217.79 24.6252 212.799 23.3829 210.475 23.6171C204.285 23.8846 197.739 30.7465 195.282 30.7465C191.744 30.7465 194.632 23.7354 195.324 20.0141C195.754 17.705 192.237 15.0543 192.006 16.4907C190.694 23.179 187.007 23.8627 186.091 23.2884C186.091 23.2884 186.776 20.52 186.928 19.6405C187.226 17.8871 184.832 16.1807 183.669 16.7249C180.872 18.0327 177.017 18.176 174.335 16.0399C173.666 15.7955 172.703 15.9843 172.541 18.5009C172.344 21.5529 175.688 17.8767 175.087 24.205C174.909 26.0945 173.801 32.4147 170.843 31.6445C167.607 30.8034 170.148 23.6212 170.8 22.5801C171.585 21.3263 169.031 18.8021 168.347 18.9322C165.57 19.4585 163.512 31.9012 160.082 30.6179C157.741 29.7425 160.387 23.407 161.197 21.2106C162.208 18.4662 158.811 15.1906 157.85 17.703C157.11 19.1705 153.136 32.3968 150.392 31.5591C147.871 30.7892 151.764 22.8369 152.964 18.9028C153.736 16.8647 150.477 13.615 149.415 16.1153C146.447 23.0949 144.635 31.6371 140.267 31.1326C138.044 30.8753 138.509 28.3525 139.202 26.3849C139.759 24.8031 137.015 20.9971 135.969 23.3721C135.243 25.0217 133.525 31.6398 130.455 30.7466C127.369 29.8487 131.989 22.0874 132.642 20.8698C133.671 19.0739 130.485 15.046 129.384 17.2671C127.065 21.9417 122.741 32.3516 119.777 31.4551C117.135 30.6569 121.121 22.7273 122.732 19.9232C123.767 17.9194 120.552 14.0708 119.302 16.1426C117.522 19.0965 112.706 33.312 108.118 31.8157C102.879 30.1059 113.247 8.73784 114.979 5.59763C116.576 2.69917 112.777 -1.04951 111.362 0.550095C109.509 2.64575 95.7558 30.4728 89.326 31.2915C85.7575 31.6828 85.1858 25.9503 81.9335 25.6258L81.9337 25.6259Z" fill="#3C2A22"/>
</g>
<defs>
<clipPath id="clip0_26_9">
<rect width="217" height="64" fill="white"/>
</clipPath>
</defs>
</svg>
